<svg width="101" height="81" viewBox="0 0 101 81" fill="none" xmlns="http://www.w3.org/2000/svg">
<path d="M93.9544 80.5617C93.9544 80.5617 100.204 80.5617 100.204 73.895C100.204 67.2284 93.9544 47.2284 68.9544 47.2284C43.9544 47.2284 37.7044 67.2284 37.7044 73.895C37.7044 80.5617 43.9544 80.5617 43.9544 80.5617H93.9544ZM44.0919 73.895C44.0457 73.8882 43.9999 73.8794 43.9544 73.8684C43.9607 72.1084 44.9982 67.0017 48.7044 62.4017C52.1544 58.0884 58.2169 53.895 68.9544 53.895C79.6857 53.895 85.7482 58.095 89.2044 62.4017C92.9107 67.0017 93.9419 72.115 93.9544 73.8684L93.9044 73.8817C93.8754 73.887 93.8462 73.8914 93.8169 73.895H44.0919ZM68.9544 33.895C72.2696 33.895 75.449 32.4903 77.7932 29.9898C80.1374 27.4893 81.4544 24.0979 81.4544 20.5617C81.4544 17.0255 80.1374 13.6341 77.7932 11.1336C75.449 8.63313 72.2696 7.22837 68.9544 7.22837C65.6392 7.22837 62.4598 8.63313 60.1156 11.1336C57.7714 13.6341 56.4544 17.0255 56.4544 20.5617C56.4544 24.0979 57.7714 27.4893 60.1156 29.9898C62.4598 32.4903 65.6392 33.895 68.9544 33.895ZM87.7044 20.5617C87.7044 23.1881 87.2194 25.7889 86.2771 28.2154C85.3349 30.6419 83.9538 32.8467 82.2127 34.7038C80.4716 36.561 78.4046 38.0342 76.1297 39.0393C73.8549 40.0444 71.4167 40.5617 68.9544 40.5617C66.4921 40.5617 64.0539 40.0444 61.7791 39.0393C59.5042 38.0342 57.4373 36.561 55.6962 34.7038C53.9551 32.8467 52.5739 30.6419 51.6317 28.2154C50.6894 25.7889 50.2044 23.1881 50.2044 20.5617C50.2044 15.2574 52.1798 10.1703 55.6962 6.41957C59.2125 2.66884 63.9816 0.561707 68.9544 0.561707C73.9272 0.561707 78.6964 2.66884 82.2127 6.41957C85.729 10.1703 87.7044 15.2574 87.7044 20.5617ZM43.5544 49.095C41.0543 48.2553 38.4771 47.7033 35.8669 47.4484C34.4002 47.2996 32.9277 47.2262 31.4544 47.2284C6.45441 47.2284 0.204407 67.2284 0.204407 73.895C0.204407 78.3417 2.28566 80.5617 6.45441 80.5617H32.8044C31.8779 78.4805 31.4158 76.1986 31.4544 73.895C31.4544 67.1617 33.8107 60.2817 38.2669 54.535C39.7857 52.575 41.5544 50.7417 43.5544 49.095ZM30.9544 53.895C27.2554 59.8235 25.2572 66.7738 25.2044 73.895H6.45441C6.45441 72.1617 7.47941 67.0284 11.2044 62.4017C14.6107 58.1617 20.5294 54.0284 30.9544 53.9017V53.895ZM9.57941 23.895C9.57941 18.5907 11.5548 13.5036 15.0712 9.7529C18.5875 6.00218 23.3566 3.89504 28.3294 3.89504C33.3022 3.89504 38.0714 6.00218 41.5877 9.7529C45.104 13.5036 47.0794 18.5907 47.0794 23.895C47.0794 29.1994 45.104 34.2864 41.5877 38.0372C38.0714 41.7879 33.3022 43.895 28.3294 43.895C23.3566 43.895 18.5875 41.7879 15.0712 38.0372C11.5548 34.2864 9.57941 29.1994 9.57941 23.895ZM28.3294 10.5617C25.0142 10.5617 21.8348 11.9665 19.4906 14.4669C17.1464 16.9674 15.8294 20.3588 15.8294 23.895C15.8294 27.4313 17.1464 30.8226 19.4906 33.3231C21.8348 35.8236 25.0142 37.2284 28.3294 37.2284C31.6446 37.2284 34.824 35.8236 37.1682 33.3231C39.5124 30.8226 40.8294 27.4313 40.8294 23.895C40.8294 20.3588 39.5124 16.9674 37.1682 14.4669C34.824 11.9665 31.6446 10.5617 28.3294 10.5617Z" fill="#F8F8F8"/>
</svg>
