<svg width="71" height="91" viewBox="0 0 71 91" fill="none" xmlns="http://www.w3.org/2000/svg">
<path d="M70.2044 51.1867H63.2044V82.1242C63.2044 83.2961 62.931 84.3947 62.3841 85.4201C61.8372 86.4455 61.0898 87.3391 60.1419 88.1008C59.194 88.8625 58.082 89.4631 56.806 89.9025C55.5299 90.342 54.1627 90.5617 52.7044 90.5617C51.2461 90.5617 49.8789 90.342 48.6028 89.9025C47.3268 89.4631 46.2148 88.8625 45.2669 88.1008C44.319 87.3391 43.5716 86.4455 43.0247 85.4201C42.4778 84.3947 42.2044 83.2961 42.2044 82.1242V51.1867H35.2044V45.5617H49.2044V21.4357L42.2044 15.8107V0.561707H63.2044V15.8107L56.2044 21.4357V45.5617H70.2044V51.1867ZM49.2044 13.4377L52.7044 16.2941L56.2044 13.4377V6.18671H49.2044V13.4377ZM56.2044 51.1867H49.2044V82.1242C49.2044 82.8859 49.5508 83.5451 50.2435 84.1017C50.9362 84.6584 51.7565 84.9367 52.7044 84.9367C53.6523 84.9367 54.4726 84.6584 55.1653 84.1017C55.8581 83.5451 56.2044 82.8859 56.2044 82.1242V51.1867ZM17.7044 0.561707C20.1107 0.561707 22.3711 0.927918 24.4857 1.66034C26.6002 2.39276 28.4414 3.4035 30.0091 4.69257C31.5768 5.98163 32.8346 7.47577 33.7825 9.17499C34.7304 10.8742 35.2044 12.6906 35.2044 14.6242C35.2044 16.8215 34.5846 18.9016 33.345 20.8644C32.1054 22.8273 30.3919 24.4826 28.2044 25.8303V82.1242C28.2044 83.2961 27.931 84.3947 27.3841 85.4201C26.8372 86.4455 26.0898 87.3391 25.1419 88.1008C24.194 88.8625 23.082 89.4631 21.806 89.9025C20.5299 90.342 19.1627 90.5617 17.7044 90.5617C16.2461 90.5617 14.8789 90.342 13.6028 89.9025C12.3268 89.4631 11.2148 88.8625 10.2669 88.1008C9.31899 87.3391 8.57159 86.4455 8.02472 85.4201C7.47784 84.3947 7.20441 83.2961 7.20441 82.1242V25.8303C5.01691 24.5119 3.30337 22.8713 2.06378 20.9084C0.824198 18.9455 0.204407 16.8508 0.204407 14.6242C0.204407 12.6906 0.660136 10.8742 1.57159 9.17499C2.48305 7.47577 3.72264 5.99628 5.29034 4.73651C6.85805 3.47675 8.71743 2.466 10.8685 1.70428C13.0195 0.942566 15.2982 0.561707 17.7044 0.561707ZM21.2044 22.7101C22.2252 22.2414 23.1549 21.7433 23.9935 21.216C24.832 20.6887 25.5794 20.1174 26.2357 19.5021C26.8919 18.8869 27.3659 18.1691 27.6575 17.3488C27.9492 16.5285 28.1315 15.6203 28.2044 14.6242C28.2044 13.7453 28.0403 12.8957 27.7122 12.0754C27.3841 11.2551 26.9101 10.4933 26.2903 9.79022C25.6706 9.0871 24.9232 8.47186 24.0482 7.94452C23.1732 7.41718 22.2252 7.00702 21.2044 6.71405V14.6242L17.7044 17.4367L14.2044 14.6242V6.71405C13.1471 7.00702 12.1992 7.41718 11.3607 7.94452C10.5221 8.47186 9.79295 9.0871 9.17316 9.79022C8.55337 10.4933 8.07941 11.2551 7.75128 12.0754C7.42316 12.8957 7.24087 13.7453 7.20441 14.6242C7.20441 15.6496 7.36847 16.5578 7.69659 17.3488C8.02472 18.1398 8.51691 18.843 9.17316 19.4582C9.82941 20.0734 10.5586 20.6594 11.3607 21.216C12.1627 21.7726 13.1107 22.2707 14.2044 22.7101V82.1242C14.2044 82.8859 14.5508 83.5451 15.2435 84.1017C15.9362 84.6584 16.7565 84.9367 17.7044 84.9367C18.6523 84.9367 19.4726 84.6584 20.1653 84.1017C20.8581 83.5451 21.2044 82.8859 21.2044 82.1242V22.7101Z" fill="#F8F8F8"/>
</svg>
