<svg width="101" height="91" viewBox="0 0 101 91" fill="none" xmlns="http://www.w3.org/2000/svg">
<path fill-rule="evenodd" clip-rule="evenodd" d="M73.0062 1.83652C75.1623 0.639067 77.7086 0.267757 80.1369 0.796716C82.5651 1.32568 84.6966 2.71599 86.1057 4.69007L86.5162 5.31785L98.8789 25.911C100.124 27.9846 100.51 30.4335 99.96 32.7689C99.41 35.1042 97.9644 37.1542 95.9118 38.5094L95.2591 38.9042L69.5644 53.1719C67.1661 54.5036 64.4215 54.7604 61.949 54.0946L61.138 53.8377L74.5293 83.8952C75.0174 85.009 75.0461 86.2599 74.6097 87.3934C74.1733 88.527 73.3045 89.4582 72.1799 89.9978C71.0552 90.5374 69.7591 90.6449 68.555 90.2985C67.3509 89.952 66.3291 89.1776 65.6974 88.1327L65.4402 87.6381L55.1495 64.5481L44.8637 87.6381C44.3747 88.7647 43.4538 89.6673 42.2919 90.1589C41.13 90.6506 39.816 90.6938 38.6219 90.2794C37.4279 89.865 36.4452 89.0249 35.8775 87.933C35.3097 86.841 35.2003 85.5809 35.5719 84.4135L35.7697 83.8904L46.1 60.71L37.1148 65.7038C35.5969 66.5465 33.8735 66.9862 32.121 66.9778C30.3684 66.9695 28.6496 66.5134 27.1405 65.6562L26.6213 66.0081L26.0773 66.3363L17.5124 71.0922C15.3564 72.2897 12.81 72.661 10.3818 72.132C7.95353 71.6031 5.82206 70.2127 4.41291 68.2387L4.00246 67.6109L1.52992 63.4923C0.284845 61.4187 -0.101235 58.9697 0.448764 56.6344C0.998763 54.299 2.44437 52.2491 4.49697 50.8938L5.14972 50.4991L13.7146 45.7432C14.0843 45.5372 14.4676 45.3545 14.8619 45.1962C14.8462 43.6484 15.2236 42.1202 15.9613 40.7444C16.699 39.3686 17.7746 38.1868 19.0949 37.3014L19.807 36.8686L41.2192 24.9788C41.5889 24.7729 41.9721 24.5902 42.3664 24.4319C42.3508 22.884 42.7282 21.3559 43.4659 19.9801C44.2035 18.6043 45.2792 17.4224 46.5994 16.5371L47.3115 16.1043L73.0062 1.83652ZM18.6597 53.9804L10.0948 58.7363L12.5674 62.855L21.1322 58.099L18.6597 53.9804ZM46.1643 33.2161L24.752 45.1059L32.1697 57.4617L53.5819 45.5719L46.1643 33.2161ZM77.9513 10.0738L52.2566 24.3415L64.6193 44.9347L90.314 30.6669L77.9513 10.0738Z" fill="#F8F8F8"/>
</svg>
