<svg width="95" height="101" viewBox="0 0 95 101" fill="none" xmlns="http://www.w3.org/2000/svg">
<path d="M47.2039 30.5617C52.3288 30.5617 57.2437 32.6688 60.8675 36.4196C64.4913 40.1703 66.5271 45.2574 66.5271 50.5617C66.5271 55.866 64.4913 60.9531 60.8675 64.7038C57.2437 68.4546 52.3288 70.5617 47.2039 70.5617C42.0791 70.5617 37.1642 68.4546 33.5404 64.7038C29.9166 60.9531 27.8807 55.866 27.8807 50.5617C27.8807 45.2574 29.9166 40.1703 33.5404 36.4196C37.1642 32.6688 42.0791 30.5617 47.2039 30.5617ZM47.2039 40.5617C44.6415 40.5617 42.1841 41.6153 40.3722 43.4906C38.5603 45.366 37.5423 47.9095 37.5423 50.5617C37.5423 53.2139 38.5603 55.7574 40.3722 57.6328C42.1841 59.5081 44.6415 60.5617 47.2039 60.5617C49.7664 60.5617 52.2238 59.5081 54.0357 57.6328C55.8476 55.7574 56.8655 53.2139 56.8655 50.5617C56.8655 47.9095 55.8476 45.366 54.0357 43.4906C52.2238 41.6153 49.7664 40.5617 47.2039 40.5617ZM37.5423 100.562C36.3346 100.562 35.3202 99.6617 35.1269 98.4617L33.3395 85.2117C30.2961 83.9617 27.6875 82.2617 25.1755 80.2617L13.1468 85.3117C12.084 85.7117 10.7797 85.3117 10.2 84.2117L0.538411 66.9117C0.242745 66.3965 0.138512 65.7875 0.245204 65.1986C0.351896 64.6096 0.662208 64.081 1.11811 63.7117L11.3111 55.4117L10.9729 50.5617L11.3111 45.5617L1.11811 37.4117C0.662208 37.0424 0.351896 36.5138 0.245204 35.9249C0.138512 35.3359 0.242745 34.7269 0.538411 34.2117L10.2 16.9117C10.7797 15.8117 12.084 15.3617 13.1468 15.8117L25.1755 20.8117C27.6875 18.8617 30.2961 17.1617 33.3395 15.9117L35.1269 2.66171C35.3202 1.46171 36.3346 0.561707 37.5423 0.561707H56.8655C58.0732 0.561707 59.0877 1.46171 59.2809 2.66171L61.0683 15.9117C64.1117 17.1617 66.7204 18.8617 69.2324 20.8117L81.2611 15.8117C82.3239 15.3617 83.6282 15.8117 84.2079 16.9117L93.8695 34.2117C94.4975 35.3117 94.2076 36.6617 93.2898 37.4117L83.0968 45.5617L83.435 50.5617L83.0968 55.5617L93.2898 63.7117C94.2076 64.4617 94.4975 65.8117 93.8695 66.9117L84.2079 84.2117C83.6282 85.3117 82.3239 85.7617 81.2611 85.3117L69.2324 80.3117C66.7204 82.2617 64.1117 83.9617 61.0683 85.2117L59.2809 98.4617C59.0877 99.6617 58.0732 100.562 56.8655 100.562H37.5423ZM43.5808 10.5617L41.7934 23.6117C35.9965 24.8617 30.8758 28.0617 27.1561 32.5117L15.5139 27.3117L11.8908 33.8117L22.0838 41.5617C20.1515 47.395 20.1515 53.7284 22.0838 59.5617L11.8425 67.3617L15.4656 73.8617L27.2044 68.6617C30.9241 73.0617 35.9965 76.2617 41.7451 77.4617L43.5325 90.5617H50.8754L52.6627 77.5117C58.4114 76.2617 63.4837 73.0617 67.2035 68.6617L78.9423 73.8617L82.5654 67.3617L72.3241 59.6117C74.2564 53.7617 74.2564 47.4117 72.3241 41.5617L82.5171 33.8117L78.894 27.3117L67.2518 32.5117C63.4558 27.9633 58.3067 24.8501 52.6144 23.6617L50.827 10.5617H43.5808Z" fill="#F8F8F8"/>
</svg>
