<svg width="101" height="101" viewBox="0 0 101 101" fill="none" xmlns="http://www.w3.org/2000/svg">
<path d="M96.5124 57.8373C96.9523 65.8855 93.482 73.6221 87.2746 78.3472L91.0381 86.0839C92.1623 88.4205 92.3089 91.1724 91.3314 93.6128C90.4027 96.0533 88.4965 97.9744 86.1504 98.8052L82.2891 100.103C80.6813 100.679 78.9455 100.713 77.3186 100.202C75.6916 99.6911 74.2526 98.6593 73.198 97.2475L62.836 84.2665C58.4859 83.4877 54.3802 81.5146 50.91 78.5549C48.4661 79.3338 46.0223 79.7491 43.5784 79.7491C39.2772 79.7491 34.976 78.3472 31.3591 75.6472C28.7686 76.4779 26.1292 76.8414 23.441 76.7895C19.5797 76.8414 15.7673 76.0106 12.1993 74.4529C8.76485 72.825 5.83025 70.2045 3.73021 66.8902C1.63017 63.5759 0.449236 59.7013 0.322106 55.7084C-0.0689114 51.9699 0.517615 48.1794 2.03281 44.7525C0.615369 40.8582 0.468737 36.6004 1.69067 32.6542C3.49912 27.7214 6.92052 23.6194 11.1728 21.0232C14.0077 12.2481 21.9747 6.3807 30.7237 7.00378C38.544 -0.784799 50.519 -1.61558 59.2191 5.0826C61.2719 4.51144 63.4225 4.19989 65.5731 4.19989C72.2204 4.04412 78.5256 7.15956 82.6801 12.7154C92.6511 15.4674 99.7871 24.9175 100.178 35.9254C100.423 41.6889 98.9562 47.3486 95.9747 52.1776C96.3169 54.0468 96.5124 55.9161 96.5124 57.8373ZM72.0738 50.516C74.8598 50.8795 77.0593 53.1122 77.0593 56.0719C77.0593 57.449 76.5443 58.7697 75.6277 59.7434C74.711 60.7172 73.4678 61.2642 72.1715 61.2642H69.0923C67.5282 65.9374 64.7911 70.0394 61.1742 73.1548C62.3961 73.6221 63.6669 73.8818 64.9377 74.2452C90.0117 73.8818 87.0791 57.6296 87.0791 57.37C86.9493 53.8033 85.4913 50.4374 83.0256 48.0128C80.5599 45.5881 77.2885 44.3033 73.9311 44.4409C72.6348 44.4409 71.3916 43.8939 70.475 42.9201C69.5584 41.9463 69.0434 40.6256 69.0434 39.2485C69.0434 37.8714 69.5584 36.5507 70.475 35.5769C71.3916 34.6032 72.6348 34.0561 73.9311 34.0561C79.943 34.2119 85.7105 36.6004 90.2072 40.8062C90.4516 39.3004 90.5982 37.7427 90.5982 36.185C90.305 29.7464 87.5678 24.1387 76.5705 23.0483C70.4608 7.67879 55.0645 16.1943 55.0645 20.9713C54.9179 22.1656 56.091 24.7098 56.2865 24.8656C57.5828 24.8656 58.826 25.4127 59.7426 26.3864C60.6592 27.3602 61.1742 28.6809 61.1742 30.058C61.1742 32.9138 58.9747 35.2504 56.2865 35.2504C53.696 35.1465 51.2521 34.1081 49.297 32.3426C46.9509 33.9523 44.2627 34.9388 41.4767 35.2504C38.6907 35.51 36.3935 33.433 36.2468 30.5772C36.1568 29.899 36.1982 29.2083 36.3685 28.5476C36.5388 27.887 36.8344 27.2703 37.2372 26.7354C37.64 26.2005 38.1415 25.7588 38.7108 25.4372C39.2802 25.1157 39.9053 24.9212 40.548 24.8656C41.33 24.7618 45.1425 24.1387 45.1425 20.8675C45.1425 17.4405 46.3644 14.1693 48.4661 11.5731C43.9694 10.275 39.1306 11.9885 34.2429 18.2713C25.2495 16.7655 21.5837 18.0636 18.8954 28.1887C14.2521 30.6292 11.8082 32.3426 10.7329 37.535C16.0117 36.3927 21.437 36.86 26.4714 38.8331C28.9152 39.8197 30.2838 42.7274 29.3551 45.5313C28.4265 48.2314 25.5916 49.5814 23.05 48.5948C19.482 46.9333 15.474 46.8294 11.8082 48.2833C10.2442 49.6852 10.2442 52.593 10.2442 54.8776C10.2442 58.72 12.0526 62.3027 15.1319 64.3797C17.7224 65.7816 20.6061 66.5086 23.4899 66.4566C22.7567 65.1066 22.1213 63.7047 21.5837 62.2508C21.1989 60.9168 21.3161 59.4762 21.9106 58.232C22.5052 56.9879 23.5307 56.0372 24.7716 55.5798C26.0124 55.1225 27.3719 55.1942 28.564 55.7798C29.7561 56.3655 30.688 57.4194 31.1636 58.72C33.1187 64.6393 38.1042 68.6894 43.9694 69.3644C50.6656 69.0009 56.6286 64.7951 59.5612 58.3046C60.6854 51.1391 66.1108 50.516 72.0738 50.516ZM81.8492 89.3032L78.8188 82.553L75.3486 83.3838L80.2363 89.8743L81.8492 89.3032ZM59.1213 44.5967C59.1638 43.2702 58.7266 41.9768 57.8994 40.9822C57.0722 39.9876 55.9179 39.3672 54.6735 39.2485C51.2032 39.0408 47.8307 40.287 45.2402 42.7274C42.4542 45.739 40.9879 49.8929 41.1345 54.0988C41.1345 55.4759 41.6495 56.7966 42.5661 57.7703C43.4827 58.7441 44.726 59.2911 46.0223 59.2911C48.8083 59.2911 50.91 56.9546 50.91 54.0988C50.91 52.6968 51.2521 51.2949 52.0341 50.1525C52.6207 49.6333 53.3538 49.3737 54.1359 49.3737C56.8241 49.5294 59.1213 47.4006 59.1213 44.5967Z" fill="white"/>
</svg>
