<svg width="71" height="91" viewBox="0 0 71 91" fill="none" xmlns="http://www.w3.org/2000/svg">
<path d="M17.722 71.276H52.6876V77.7046H17.722V71.276ZM24.7151 84.1331H45.6945V90.5617H24.7151V84.1331ZM35.2048 0.561707C25.9313 0.561707 17.0377 3.94818 10.4803 9.97613C3.92301 16.0041 0.239141 24.1797 0.239141 32.7046C0.00268331 37.376 0.976126 42.0323 3.07938 46.2904C5.18264 50.5485 8.35562 54.2867 12.3373 57.1974C15.8338 60.1867 17.722 61.8903 17.722 64.8474H24.7151C24.7151 58.9331 20.8339 55.6224 17.0576 52.4403C13.7896 50.1397 11.185 47.1376 9.4721 43.6969C7.75917 40.2562 6.9901 36.4819 7.23227 32.7046C7.23227 25.8847 10.1794 19.3442 15.4252 14.5218C20.6711 9.69945 27.786 6.99028 35.2048 6.99028C42.6236 6.99028 49.7385 9.69945 54.9844 14.5218C60.2302 19.3442 63.1773 25.8847 63.1773 32.7046C63.4155 36.4847 62.641 40.2608 60.9219 43.7017C59.2027 47.1426 56.5914 50.1432 53.317 52.4403C49.5757 55.6546 45.6945 58.8688 45.6945 64.8474H52.6876C52.6876 61.8903 54.5408 60.1867 58.0723 57.1653C62.0512 54.2595 65.2227 50.5268 67.326 46.2743C69.4292 42.0218 70.4041 37.371 70.1704 32.7046C70.1704 28.4835 69.266 24.3038 67.5088 20.404C65.7517 16.5043 63.1761 12.9609 59.9292 9.97613C56.6824 6.99139 52.8278 4.62377 48.5856 3.00844C44.3433 1.39311 39.7965 0.561707 35.2048 0.561707Z" fill="#F8F8F8"/>
</svg>
