<svg width="105" height="23" viewBox="0 0 105 23" fill="none" xmlns="http://www.w3.org/2000/svg">
<path d="M2.44959 17.5626L0.233676 17.562L6.64746 0.109157L8.82928 0.109743L15.2337 17.566L13.0178 17.5654L7.80581 2.87083L7.66944 2.87079L2.44959 17.5626ZM3.2696 10.7446L12.2014 10.747L12.2009 12.622L3.2691 12.6196L3.2696 10.7446ZM17.6784 22.4758L17.6832 4.47576L19.6264 4.47628L19.6258 6.55583L19.8645 6.55589C20.0123 6.32866 20.2169 6.03894 20.4783 5.68674C20.7455 5.32885 21.1263 5.01078 21.6206 4.7325C22.1207 4.44854 22.7969 4.30668 23.6492 4.30691C24.7514 4.3072 25.723 4.58303 26.5637 5.1344C27.4045 5.68576 28.0605 6.46718 28.5318 7.47867C29.0032 8.49016 29.2386 9.68341 29.2383 11.0584C29.2379 12.4448 29.0018 13.6464 28.5299 14.6633C28.058 15.6746 27.4044 16.4585 26.5691 17.0151C25.7337 17.566 24.7705 17.8413 23.6796 17.841C22.8387 17.8408 22.1655 17.7014 21.6599 17.4229C21.1542 17.1386 20.7651 16.8175 20.4925 16.4595C20.2199 16.0958 20.0097 15.7946 19.8621 15.5559L19.6916 15.5558L19.6897 22.4763L17.6784 22.4758ZM19.6587 11.0217C19.6585 12.0104 19.8031 12.8826 20.0927 13.6383C20.3823 14.3884 20.8054 14.9766 21.3621 15.4029C21.9188 15.8235 22.6006 16.0339 23.4074 16.0341C24.2483 16.0343 24.9501 15.8129 25.5127 15.3699C26.081 14.9212 26.5073 14.319 26.7916 13.5634C27.0815 12.8021 27.2267 11.9556 27.2269 11.0238C27.2272 10.1033 27.0853 9.27374 26.8014 8.53503C26.5232 7.79063 26.1001 7.20245 25.532 6.77048C24.9696 6.33283 24.2623 6.11389 23.41 6.11366C22.5919 6.11344 21.9043 6.32064 21.3474 6.73527C20.7905 7.14421 20.3698 7.71796 20.0856 8.45652C19.8013 9.1894 19.659 10.0445 19.6587 11.0217ZM32.3047 17.5706L32.3082 4.47969L34.2514 4.48021L34.2509 6.45748L34.3872 6.45752C34.626 5.80986 35.058 5.28441 35.6831 4.88116C36.3082 4.47792 37.0128 4.27641 37.7969 4.27662C37.9446 4.27666 38.1293 4.27955 38.3509 4.28529C38.5725 4.29103 38.7401 4.2996 38.8537 4.31099L38.8532 6.35645C38.785 6.33938 38.6287 6.31377 38.3844 6.27962C38.1458 6.23978 37.893 6.21983 37.6259 6.21975C36.9896 6.21958 36.4213 6.35295 35.9213 6.61986C35.4269 6.8811 35.0347 7.24463 34.7448 7.71046C34.4606 8.17061 34.3184 8.69614 34.3183 9.28705L34.3161 17.5711L32.3047 17.5706ZM46.3245 17.8471C45.0631 17.8468 43.9752 17.5681 43.0605 17.011C42.1516 16.4482 41.4501 15.664 40.956 14.6581C40.4677 13.6467 40.2237 12.4705 40.224 11.1295C40.2244 9.78863 40.469 8.60688 40.9579 7.58429C41.4525 6.55601 42.1403 5.75506 43.0211 5.18143C43.9076 4.60212 44.9418 4.31263 46.1236 4.31295C46.8054 4.31313 47.4787 4.42695 48.1434 4.6544C48.8081 4.88185 49.4131 5.25133 49.9584 5.76284C50.5038 6.26867 50.9382 6.93924 51.2619 7.77456C51.5855 8.60987 51.7472 9.63832 51.7468 10.8599L51.7466 11.7122L41.6557 11.7095L41.6562 9.97084L49.7016 9.973C49.7018 9.23436 49.5543 8.57523 49.259 7.99561C48.9694 7.41598 48.5547 6.95849 48.015 6.62311C47.481 6.28774 46.8504 6.11996 46.1231 6.11977C45.322 6.11955 44.6287 6.31823 44.0434 6.7158C43.4638 7.10769 43.0176 7.61893 42.7049 8.24953C42.3923 8.88013 42.2358 9.55622 42.2356 10.2778L42.2353 11.4369C42.2351 12.4255 42.4053 13.2637 42.746 13.9512C43.0924 14.6332 43.5724 15.1532 44.1859 15.5113C44.7995 15.8637 45.5125 16.0401 46.325 16.0403C46.8534 16.0404 47.3307 15.9667 47.7569 15.8191C48.1887 15.6658 48.561 15.4386 48.8735 15.1376C49.1861 14.8308 49.4277 14.4502 49.5983 13.9957L51.5413 14.5417C51.3366 15.2007 50.9927 15.7802 50.5096 16.28C50.0265 16.7742 49.4298 17.1604 48.7195 17.4386C48.0092 17.7112 47.2109 17.8473 46.3245 17.8471ZM56.8182 9.70219L56.8161 17.5772L54.8047 17.5766L54.8082 4.48574L56.7514 4.48626L56.7508 6.53171L56.9213 6.53176C57.2283 5.86707 57.6943 5.3331 58.3195 4.92986C58.9446 4.52094 59.7514 4.31661 60.7401 4.31688C61.6264 4.31711 62.402 4.49914 63.0666 4.86296C63.7313 5.22109 64.2482 5.76668 64.6173 6.49974C64.9865 7.22711 65.1709 8.14761 65.1706 9.26125L65.1683 17.5794L63.157 17.5789L63.1592 9.39707C63.1594 8.36866 62.8926 7.56745 62.3587 6.99345C61.8247 6.41376 61.0919 6.12379 60.16 6.12354C59.518 6.12337 58.9441 6.26242 58.4383 6.54069C57.9383 6.81896 57.5433 7.22511 57.2534 7.75912C56.9634 8.29313 56.8184 8.94082 56.8182 9.70219ZM73.7869 17.8545C72.696 17.8542 71.733 17.5784 70.8979 17.027C70.0628 16.4699 69.4096 15.6857 68.9383 14.6742C68.467 13.657 68.2315 12.4553 68.2319 11.0689C68.2322 9.69389 68.4684 8.50077 68.9402 7.48953C69.4121 6.4783 70.0685 5.69722 70.9096 5.14631C71.7507 4.5954 72.7223 4.3201 73.8246 4.32039C74.6769 4.32062 75.3501 4.46285 75.8444 4.74707C76.3443 5.02561 76.7249 5.3439 76.9862 5.70192C77.2531 6.05427 77.4604 6.3441 77.6081 6.57141L77.7785 6.57145L77.7803 0.128273L79.7916 0.128813L79.7869 17.5834L77.8438 17.5828L77.8443 15.5715L77.6057 15.5714C77.4579 15.81 77.2476 16.1111 76.9747 16.4746C76.7019 16.8325 76.3126 17.1534 75.8069 17.4374C75.3011 17.7157 74.6278 17.8547 73.7869 17.8545ZM74.0601 16.0477C74.8669 16.0479 75.5488 15.8379 76.1057 15.4176C76.6626 14.9916 77.0861 14.4037 77.3761 13.6537C77.666 12.8981 77.8112 12.026 77.8114 11.0374C77.8117 10.0601 77.6699 9.20495 77.386 8.47192C77.1021 7.7332 76.6818 7.15923 76.1251 6.74999C75.5684 6.33506 74.8809 6.12749 74.0627 6.12727C73.2105 6.12704 72.5002 6.3456 71.9319 6.78295C71.3693 7.21462 70.9458 7.80257 70.6615 8.54681C70.3829 9.28538 70.2435 10.1149 70.2432 11.0353C70.243 11.9672 70.3848 12.8138 70.6687 13.5752C70.9583 14.331 71.3842 14.9334 71.9466 15.3824C72.5147 15.8257 73.2192 16.0475 74.0601 16.0477ZM89.2386 17.8586C87.9772 17.8583 86.8892 17.5796 85.9746 17.0225C85.0656 16.4598 84.3642 15.6755 83.8701 14.6697C83.3817 13.6582 83.1377 12.482 83.1381 11.1411C83.1385 9.80017 83.3831 8.61841 83.872 7.59582C84.3666 6.56754 85.0543 5.76659 85.9352 5.19296C86.8217 4.61366 87.8558 4.32416 89.0377 4.32448C89.7195 4.32466 90.3927 4.43848 91.0575 4.66593C91.7222 4.89338 92.3272 5.26286 92.8725 5.77437C93.4178 6.2802 93.8523 6.95077 94.1759 7.78609C94.4996 8.6214 94.6612 9.64985 94.6609 10.8714L94.6607 11.7237L84.5698 11.721L84.5702 9.98237L92.6157 9.98453C92.6159 9.2459 92.4683 8.58677 92.173 8.00714C91.8834 7.42752 91.4688 6.97002 90.9291 6.63465C90.3951 6.29928 89.7644 6.13149 89.0372 6.1313C88.236 6.13108 87.5428 6.32976 86.9575 6.72733C86.3778 7.11922 85.9317 7.63046 85.619 8.26106C85.3063 8.89166 85.1499 9.56775 85.1497 10.2893L85.1494 11.4484C85.1491 12.4371 85.3193 13.2752 85.6601 13.9628C86.0065 14.6447 86.4865 15.1647 87.1 15.5228C87.7135 15.8753 88.4266 16.0516 89.2391 16.0518C89.7675 16.0519 90.2448 15.9782 90.6709 15.8306C91.1028 15.6773 91.475 15.4501 91.7876 15.1491C92.1002 14.8423 92.3418 14.4617 92.5123 14.0072L94.4554 14.5532C94.2506 15.2122 93.9067 15.7917 93.4236 16.2916C92.9406 16.7858 92.3439 17.172 91.6336 17.4502C90.9233 17.7227 90.1249 17.8589 89.2386 17.8586ZM97.7188 17.5882L97.7223 4.49727L99.6655 4.49779L99.6649 6.47506L99.8013 6.4751C100.04 5.82744 100.472 5.30198 101.097 4.89874C101.722 4.4955 102.427 4.29399 103.211 4.2942C103.359 4.29424 103.543 4.29713 103.765 4.30287C103.987 4.30861 104.154 4.31718 104.268 4.32857L104.267 6.37403C104.199 6.35696 104.043 6.33135 103.798 6.2972C103.56 6.25736 103.307 6.23741 103.04 6.23733C102.404 6.23716 101.835 6.37053 101.335 6.63744C100.841 6.89867 100.449 7.26221 100.159 7.72804C99.8747 8.18819 99.7325 8.71372 99.7323 9.30463L99.7301 17.5887L97.7188 17.5882Z" fill="white"/>
</svg>
