<svg width="144" height="96" viewBox="0 0 144 96" fill="none" xmlns="http://www.w3.org/2000/svg">
<path d="M28.8561 18.219L26.081 16.6858C26.3579 15.7969 26.4581 14.937 26.3816 14.1061C26.3127 13.2793 26.1006 12.5 25.7454 11.7682C25.4018 11.0331 24.937 10.3674 24.3512 9.77108C23.7654 9.17478 23.092 8.66644 22.3311 8.24605C20.9436 7.47945 19.4929 7.13559 17.979 7.21447C16.4726 7.29748 15.0103 7.83816 13.5921 8.8365C12.1814 9.83897 10.9279 11.3324 9.8316 13.3167C8.73529 15.301 8.13824 17.1571 8.04048 18.885C7.95018 20.617 8.27081 22.1427 9.00237 23.4621C9.7414 24.7857 10.8047 25.8308 12.1922 26.5974C12.9531 27.0178 13.7419 27.3173 14.5585 27.4958C15.3752 27.6743 16.184 27.7172 16.9851 27.6242C17.7978 27.5279 18.5725 27.289 19.3092 26.9073C20.0574 26.5222 20.732 25.9797 21.333 25.2796L24.1081 26.8128C23.2522 27.8686 22.2926 28.7065 21.2295 29.3266C20.1664 29.9466 19.0453 30.3544 17.8662 30.5501C16.6911 30.7383 15.4999 30.7179 14.2924 30.4889C13.0924 30.2641 11.9142 29.8323 10.7579 29.1934C8.80344 28.1136 7.32906 26.6759 6.3348 24.8802C5.34053 23.0846 4.89333 21.0654 4.99319 18.8226C5.09306 16.5799 5.81067 14.25 7.14604 11.833C8.48141 9.41596 10.0718 7.5683 11.9173 6.28998C13.7628 5.01165 15.7102 4.31545 17.7596 4.20137C19.809 4.08729 21.8109 4.57017 23.7654 5.65C24.9217 6.28883 25.9144 7.05636 26.7434 7.95258C27.58 8.85292 28.2293 9.85428 28.6913 10.9567C29.1574 12.0516 29.411 13.214 29.4519 14.4441C29.497 15.6666 29.2984 16.9249 28.8561 18.219ZM31.0624 40.4698C29.5107 39.6125 28.3533 38.4911 27.5901 37.1055C26.8344 35.724 26.4951 34.188 26.5723 32.4974C26.6569 30.811 27.1897 29.0801 28.1706 27.3046C29.1597 25.5142 30.3477 24.1307 31.7345 23.1539C33.1287 22.1813 34.6117 21.6472 36.1834 21.5516C37.7627 21.4601 39.3281 21.8431 40.8798 22.7003C42.4314 23.5576 43.5851 24.677 44.3408 26.0585C45.104 27.4441 45.4412 28.9838 45.3525 30.6777C45.2712 32.3757 44.736 34.1199 43.7468 35.9103C42.7659 37.6857 41.5804 39.0561 40.1903 40.0212C38.8077 40.9905 37.3268 41.5209 35.7475 41.6124C34.1757 41.7079 32.614 41.3271 31.0624 40.4698ZM32.373 38.0976C33.5517 38.7488 34.6884 38.9824 35.7831 38.7986C36.8779 38.6147 37.88 38.1314 38.7896 37.3486C39.6992 36.5659 40.4713 35.6001 41.106 34.4513C41.7408 33.3025 42.1494 32.131 42.332 30.9369C42.5147 29.7427 42.3945 28.6296 41.9716 27.5975C41.5486 26.5654 40.7478 25.7238 39.5691 25.0726C38.3905 24.4214 37.2517 24.1914 36.1528 24.3828C35.054 24.5741 34.0477 25.0648 33.134 25.8551C32.2203 26.6453 31.4461 27.6148 30.8114 28.7636C30.1767 29.9124 29.7701 31.0802 29.5916 32.2668C29.4131 33.4535 29.5373 34.5592 29.9644 35.5838C30.3915 36.6084 31.1943 37.4464 32.373 38.0976ZM59.0346 41.0265L57.6745 43.4883L47.6484 37.949L49.0085 35.4872L59.0346 41.0265ZM64.3578 58.8651C62.7464 57.9749 61.5691 56.8278 60.8257 55.4239C60.0824 54.0201 59.7663 52.4774 59.8774 50.7958C59.9885 49.1143 60.518 47.4157 61.466 45.6999C62.4304 43.9543 63.6023 42.591 64.9816 41.6102C66.3725 40.6259 67.8542 40.0765 69.4267 39.9619C71.0109 39.844 72.5788 40.2136 74.1304 41.0709C75.3389 41.7386 76.3044 42.5641 77.0269 43.5475C77.7494 44.5309 78.1977 45.5965 78.3717 46.7442C78.5458 47.892 78.4107 49.0442 77.9664 50.2008L75.3256 48.7418C75.5569 47.8472 75.4926 46.9062 75.1327 45.9186C74.7843 44.9277 74.0283 44.1108 72.8645 43.4679C71.8351 42.8991 70.7841 42.6689 69.7115 42.7774C68.6505 42.8826 67.6358 43.3005 66.6673 44.0312C65.7104 44.7586 64.8734 45.7714 64.1562 47.0694C63.4226 48.3972 62.9927 49.6689 62.8664 50.8844C62.7475 52.1041 62.9219 53.1984 63.3894 54.1675C63.8643 55.1407 64.624 55.9158 65.6684 56.4928C66.3547 56.872 67.0436 57.0968 67.7349 57.1672C68.4263 57.2376 69.0896 57.1562 69.7248 56.9229C70.36 56.6896 70.9328 56.305 71.4431 55.769L74.0839 57.228C73.3742 58.1602 72.5 58.87 71.4615 59.3575C70.4345 59.8417 69.3079 60.0567 68.0818 60.0024C66.8673 59.9449 65.626 59.5658 64.3578 58.8651ZM75.1748 64.374L84.6707 47.1864L87.222 48.5959L85.7877 51.192L85.9667 51.2909C86.7499 50.6136 87.6981 50.2367 88.8113 50.1605C89.9245 50.0842 90.9959 50.3304 92.0253 50.8992C92.2193 51.0063 92.4597 51.144 92.7465 51.3122C93.0333 51.4804 93.2472 51.6132 93.3882 51.7105L91.9044 54.3961C91.8273 54.3243 91.6407 54.1774 91.3446 53.9554C91.0602 53.73 90.7426 53.5205 90.392 53.3268C89.5565 52.8652 88.7136 52.6284 87.8635 52.6163C87.0249 52.6009 86.2463 52.7939 85.5279 53.1954C84.8211 53.5936 84.2534 54.1806 83.8247 54.9565L77.8156 65.833L75.1748 64.374ZM93.3842 74.9019C91.7281 73.9869 90.5015 72.8321 89.7044 71.4374C88.9188 70.0395 88.5663 68.501 88.6468 66.822C88.7389 65.1397 89.2712 63.4183 90.2439 61.6578C91.2166 59.8972 92.3946 58.5228 93.7781 57.5345C95.1731 56.5428 96.6568 55.9896 98.2294 55.875C99.8135 55.7571 101.381 56.1267 102.933 56.984C103.828 57.4786 104.63 58.1162 105.338 58.8968C106.046 59.6774 106.572 60.6012 106.918 61.6683C107.267 62.7279 107.351 63.9234 107.171 65.255C106.99 66.5865 106.457 68.0542 105.57 69.6581L104.952 70.7771L91.7034 63.4573L92.9646 61.1746L103.528 67.0106C104.064 66.0408 104.348 65.0683 104.38 64.0931C104.42 63.122 104.207 62.2206 103.742 61.3889C103.284 60.5614 102.577 59.8838 101.622 59.3562C100.571 58.7751 99.5163 58.5334 98.4594 58.6311C97.4141 58.7254 96.4576 59.0733 95.5898 59.6746C94.722 60.276 94.0264 61.0504 93.503 61.9978L92.6622 63.5196C91.945 64.8176 91.5609 66.0416 91.5098 67.1915C91.4703 68.3381 91.7235 69.369 92.2695 70.2841C92.8197 71.1917 93.6281 71.9402 94.6949 72.5296C95.3887 72.9129 96.0689 73.1621 96.7355 73.2773C97.4137 73.3891 98.0672 73.3607 98.696 73.192C99.3288 73.0158 99.922 72.6912 100.476 72.218L102.631 74.3437C101.884 75.0607 101.013 75.5723 100.016 75.8784C99.0233 76.1771 97.9598 76.2516 96.8253 76.102C95.695 75.9448 94.548 75.5448 93.3842 74.9019ZM109.551 83.8923C108.462 83.2906 107.587 82.5393 106.926 81.6386C106.269 80.7304 105.896 79.7404 105.806 78.6686C105.721 77.5893 105.988 76.4902 106.606 75.3712C107.15 74.3865 107.785 73.6955 108.511 73.2981C109.241 72.8932 110.027 72.6948 110.87 72.7027C111.712 72.7107 112.573 72.8452 113.451 73.1064C114.341 73.3643 115.213 73.6615 116.069 73.998C117.188 74.4408 118.09 74.8078 118.776 75.0993C119.474 75.3874 120.019 75.5281 120.413 75.5213C120.813 75.5187 121.131 75.3048 121.366 74.8796L121.415 74.7901C122.025 73.686 122.197 72.6612 121.931 71.7157C121.672 70.7742 120.935 69.9676 119.719 69.2958C118.458 68.5993 117.317 68.3292 116.296 68.4856C115.275 68.6419 114.446 68.9531 113.809 69.419L111.797 67.139C112.821 66.3419 113.867 65.8584 114.935 65.6887C116.014 65.5157 117.061 65.5587 118.077 65.8179C119.104 66.0738 120.05 66.4408 120.915 66.9189C121.467 67.2239 122.064 67.6413 122.706 68.1713C123.36 68.6979 123.911 69.3481 124.36 70.1218C124.816 70.8997 125.043 71.8189 125.042 72.8793C125.04 73.9397 124.662 75.1525 123.908 76.5177L117.651 87.8418L115.011 86.3828L116.297 84.0553L116.162 83.9811C115.777 84.2552 115.258 84.4894 114.606 84.6838C113.953 84.8783 113.197 84.933 112.339 84.8481C111.48 84.7632 110.551 84.4446 109.551 83.8923ZM111.265 81.7426C112.309 82.3197 113.303 82.6008 114.246 82.5862C115.196 82.5757 116.033 82.3469 116.757 81.8999C117.489 81.4569 118.052 80.8774 118.448 80.1612L119.783 77.7442C119.597 77.8167 119.283 77.8038 118.841 77.7055C118.41 77.6038 117.926 77.458 117.388 77.2681C116.862 77.0748 116.351 76.8802 115.856 76.6843C115.372 76.4851 114.978 76.3259 114.674 76.2066C113.938 75.9169 113.216 75.7079 112.508 75.5796C111.812 75.448 111.171 75.4789 110.587 75.6723C110.015 75.8624 109.543 76.2931 109.172 76.9645C108.665 77.8821 108.622 78.7634 109.041 79.6084C109.472 80.4501 110.213 81.1615 111.265 81.7426ZM122.471 90.5048L131.967 73.3172L134.519 74.7267L133.084 77.3228L133.263 77.4217C134.047 76.7444 134.995 76.3676 136.108 76.2913C137.221 76.215 138.293 76.4612 139.322 77.03C139.516 77.1372 139.756 77.2748 140.043 77.443C140.33 77.6112 140.544 77.744 140.685 77.8414L139.201 80.5269C139.124 80.4551 138.937 80.3082 138.641 80.0862C138.357 79.8609 138.039 79.6514 137.689 79.4576C136.853 78.996 136.01 78.7592 135.16 78.7471C134.322 78.7317 133.543 78.9248 132.825 79.3263C132.118 79.7244 131.55 80.3115 131.121 81.0873L125.112 91.9638L122.471 90.5048Z" fill="white"/>
</svg>
