<svg width="194" height="123" viewBox="0 0 194 123" fill="none" xmlns="http://www.w3.org/2000/svg">
<path d="M23.7821 89.9127L20.9663 91.3698C20.3807 90.646 19.7211 90.0853 18.9875 89.6876C18.2615 89.286 17.4956 89.0298 16.6897 88.919C15.8875 88.7967 15.0759 88.8137 14.2547 88.9699C13.4335 89.1261 12.6368 89.404 11.8648 89.8035C10.4569 90.5321 9.36551 91.5478 8.59072 92.8508C7.8235 94.1498 7.46144 95.6662 7.50455 97.4C7.55522 99.1299 8.1015 101.002 9.14338 103.015C10.1853 105.028 11.3976 106.555 12.7805 107.596C14.171 108.633 15.618 109.213 17.1216 109.337C18.6327 109.457 20.0923 109.153 21.5002 108.424C22.2722 108.025 22.9592 107.535 23.5611 106.955C24.1629 106.375 24.6475 105.726 25.015 105.008C25.386 104.278 25.6173 103.501 25.7088 102.677C25.8039 101.841 25.7272 100.978 25.4785 100.09L28.2943 98.6326C28.6973 99.9307 28.8616 101.194 28.7871 102.422C28.7127 103.651 28.4295 104.81 27.9377 105.899C27.4419 106.981 26.7636 107.96 25.9029 108.838C25.0497 109.711 24.0365 110.451 22.8632 111.058C20.8801 112.085 18.8657 112.513 16.8202 112.343C14.7747 112.173 12.847 111.424 11.037 110.096C9.22698 108.768 7.68746 106.878 6.41841 104.425C5.14935 101.973 4.49545 99.6241 4.45669 97.3794C4.41793 95.1348 4.91995 93.1285 5.96275 91.3606C7.00554 89.5927 8.51853 88.1956 10.5017 87.1694C11.675 86.5623 12.8644 86.1627 14.0701 85.9706C15.2834 85.7746 16.4767 85.7905 17.6501 86.0182C18.8196 86.2383 19.9272 86.6727 20.973 87.3215C22.015 87.9627 22.9513 88.8264 23.7821 89.9127ZM43.5142 100.43C41.9398 101.245 40.3645 101.585 38.7883 101.45C37.2197 101.312 35.7538 100.741 34.3905 99.7388C33.0348 98.7322 31.8908 97.3281 30.9586 95.5266C30.0185 93.71 29.5272 91.9538 29.4847 90.2581C29.4496 88.5585 29.8287 87.0286 30.6217 85.6682C31.4223 84.3039 32.6099 83.2143 34.1843 82.3996C35.7587 81.5849 37.3302 81.2468 38.8988 81.3851C40.475 81.5195 41.9429 82.0938 43.3025 83.108C44.6697 84.1182 45.8234 85.5316 46.7634 87.3483C47.6956 89.1498 48.1773 90.8966 48.2084 92.5886C48.247 94.2767 47.866 95.8029 47.0654 97.1672C46.2724 98.5276 45.0886 99.6152 43.5142 100.43ZM42.2686 98.0228C43.4646 97.404 44.29 96.5882 44.7448 95.5756C45.1996 94.5629 45.354 93.4611 45.2078 92.27C45.0617 91.0789 44.6871 89.9005 44.0839 88.7349C43.4807 87.5692 42.7332 86.5789 41.8413 85.7641C40.9495 84.9493 39.9569 84.4313 38.8637 84.2102C37.7704 83.989 36.6258 84.1878 35.4299 84.8067C34.2339 85.4256 33.4105 86.2451 32.9596 87.2653C32.5087 88.2855 32.3582 89.3949 32.5083 90.5936C32.6583 91.7922 33.0349 92.9744 33.6381 94.1401C34.2413 95.3058 34.9869 96.2922 35.8748 97.0995C36.7627 97.9067 37.7514 98.4171 38.8407 98.6307C39.93 98.8443 41.0727 98.6417 42.2686 98.0228ZM59.5057 77.4728L60.7983 79.9707L50.625 85.2349L49.3325 82.737L59.5057 77.4728ZM77.5252 82.8306C75.8449 83.7001 74.2034 84.0793 72.6009 83.9681C71.002 83.8454 69.5267 83.2846 68.1749 82.2856C66.8267 81.2751 65.6904 79.8766 64.7661 78.0902C63.8417 76.3039 63.3525 74.561 63.2984 72.8617C63.248 71.1509 63.6116 69.6097 64.3893 68.238C65.1706 66.8549 66.3484 65.756 67.9229 64.9413C68.8312 64.4713 69.8065 64.1586 70.8488 64.0031C71.8911 63.8476 72.9518 63.9224 74.031 64.2277C75.1062 64.5253 76.1475 65.1189 77.1547 66.0083C78.1619 66.8977 79.0866 68.1562 79.9287 69.7836L80.5162 70.919L67.0731 77.8753L65.8745 75.5591L76.5927 70.0128C76.0835 69.0288 75.4324 68.2526 74.6393 67.6842C73.8537 67.1119 72.9858 66.7885 72.0356 66.714C71.093 66.6356 70.1373 66.847 69.1684 67.3484C68.1011 67.9007 67.3148 68.6435 66.8093 69.5767C66.3075 70.4985 66.0658 71.4873 66.0842 72.5429C66.1027 73.5985 66.3606 74.607 66.8581 75.5683L67.6571 77.1124C68.3386 78.4295 69.1435 79.4285 70.0716 80.1094C71.0033 80.7788 72.0013 81.1404 73.0656 81.1942C74.1259 81.2405 75.1973 80.9836 76.2797 80.4235C76.9836 80.0592 77.5686 79.6318 78.0344 79.1413C78.5039 78.6392 78.8431 78.0799 79.0518 77.4633C79.2566 76.8391 79.3159 76.1655 79.2296 75.4424L82.1943 74.8295C82.3762 75.8486 82.3178 76.8576 82.019 77.8567C81.7164 78.8481 81.188 79.7741 80.4337 80.6346C79.6756 81.4876 78.7061 82.2195 77.5252 82.8306ZM79.6101 59.1815L82.2897 57.795L91.9721 76.5065C92.5283 77.5813 92.8246 78.6083 92.8611 79.5874C92.9051 80.5627 92.6678 81.4579 92.1493 82.2732C91.6383 83.0846 90.8227 83.7801 89.7024 84.3598C89.6116 84.4068 89.5208 84.4538 89.4299 84.5008C89.3391 84.5478 89.2483 84.5949 89.1574 84.6419L87.8649 82.144C87.9557 82.097 88.039 82.0539 88.1147 82.0147C88.1904 81.9755 88.2736 81.9325 88.3645 81.8855C89.182 81.4624 89.6546 80.9108 89.7824 80.2305C89.9141 79.5578 89.7508 78.7786 89.2925 77.893L79.6101 59.1815ZM79.4231 55.5934C78.9009 55.8636 78.3584 55.9188 77.7959 55.7589C77.2409 55.5951 76.8341 55.2633 76.5756 54.7638C76.3171 54.2642 76.2813 53.7406 76.4681 53.1929C76.6624 52.6413 77.0208 52.2303 77.5431 51.9601C78.0653 51.6898 78.604 51.6366 79.159 51.8004C79.7215 51.9604 80.1321 52.2901 80.3906 52.7897C80.6491 53.2893 80.6812 53.8149 80.4868 54.3665C80.3 54.9141 79.9454 55.3231 79.4231 55.5934ZM103.722 69.2749C102.041 70.1444 100.4 70.5236 98.7975 70.4124C97.1986 70.2897 95.7233 69.7289 94.3715 68.7299C93.0233 67.7194 91.8871 66.3209 90.9627 64.5346C90.0383 62.7482 89.5491 61.0054 89.495 59.306C89.4446 57.5952 89.8082 56.054 90.5859 54.6824C91.3672 53.2993 92.5451 52.2004 94.1195 51.3857C95.0278 50.9156 96.0031 50.6029 97.0454 50.4474C98.0877 50.2919 99.1484 50.3668 100.228 50.672C101.303 50.9696 102.344 51.5632 103.351 52.4526C104.359 53.3421 105.283 54.6005 106.125 56.2279L106.713 57.3633L93.2697 64.3196L92.0711 62.0034L102.789 56.4571C102.28 55.4731 101.629 54.6969 100.836 54.1285C100.05 53.5562 99.1825 53.2328 98.2323 53.1583C97.2897 53.0799 96.3339 53.2914 95.365 53.7927C94.2978 54.345 93.5114 55.0878 93.0059 56.0211C92.5041 56.9429 92.2624 57.9316 92.2809 58.9872C92.2993 60.0428 92.5573 61.0513 93.0547 62.0126L93.8537 63.5568C94.5353 64.8738 95.3401 65.8728 96.2682 66.5537C97.1999 67.2231 98.1979 67.5847 99.2622 67.6386C100.323 67.6849 101.394 67.4279 102.476 66.8678C103.18 66.5036 103.765 66.0761 104.231 65.5856C104.701 65.0835 105.04 64.5242 105.248 63.9076C105.453 63.2834 105.512 62.6098 105.426 61.8868L108.391 61.2739C108.573 62.2929 108.514 63.302 108.216 64.301C107.913 65.2925 107.385 66.2184 106.63 67.079C105.872 67.9319 104.903 68.6639 103.722 69.2749ZM122.104 59.7629C120.469 60.6089 118.861 60.9514 117.281 60.7903C115.701 60.6293 114.242 60.0358 112.905 59.0099C111.568 57.984 110.449 56.6006 109.548 54.8596C108.632 53.0884 108.149 51.3569 108.098 49.6651C108.052 47.9619 108.418 46.4245 109.195 45.0528C109.976 43.6697 111.154 42.5708 112.729 41.7561C113.955 41.1216 115.178 40.7768 116.397 40.7218C117.616 40.6668 118.751 40.8855 119.802 41.3779C120.853 41.8702 121.737 42.6223 122.452 43.6339L119.773 45.0205C119.157 44.3315 118.339 43.8625 117.317 43.6137C116.3 43.3533 115.201 43.5287 114.02 44.1397C112.975 44.6802 112.2 45.4266 111.695 46.379C111.194 47.3198 110.978 48.3959 111.048 49.6071C111.122 50.8068 111.499 52.0652 112.181 53.3822C112.878 54.7296 113.697 55.7932 114.638 56.573C115.587 57.3489 116.594 57.8114 117.659 57.9605C118.732 58.1057 119.799 57.9042 120.859 57.3558C121.555 56.9955 122.124 56.5473 122.567 56.0113C123.009 55.4753 123.309 54.8784 123.468 54.2206C123.627 53.5627 123.625 52.8728 123.462 52.1508L126.142 50.7643C126.523 51.872 126.628 52.9932 126.457 54.1277C126.29 55.2507 125.843 56.307 125.117 57.2967C124.395 58.275 123.391 59.097 122.104 59.7629ZM139.992 41.0063L134.657 30.6969L137.337 29.3103L146.361 46.7501L143.682 48.1367L142.154 45.1846L141.973 45.2786C142.022 46.3758 141.776 47.4579 141.234 48.5251C140.689 49.5848 139.757 50.4553 138.44 51.1369C137.35 51.7009 136.258 51.9638 135.163 51.9256C134.065 51.8799 133.023 51.4979 132.037 50.7797C131.047 50.0539 130.169 48.9492 129.401 47.4657L123.667 36.3841L126.346 34.9975L131.986 45.8974C132.645 47.1691 133.525 47.9993 134.628 48.388C135.739 48.7729 136.851 48.6774 137.964 48.1016C138.63 47.757 139.219 47.2361 139.732 46.539C140.252 45.8381 140.564 45.0142 140.669 44.0674C140.782 43.1167 140.556 42.0963 139.992 41.0063ZM149.829 22.8461L151.004 25.1169L141.966 29.7936L140.791 27.5228L149.829 22.8461ZM141.263 21.9814L143.943 20.5948L152.544 37.2172C152.936 37.9741 153.34 38.485 153.755 38.7499C154.174 39.0033 154.591 39.1042 155.006 39.0527C155.424 38.9898 155.83 38.8564 156.224 38.6528C156.519 38.5 156.753 38.3595 156.927 38.2313C157.096 38.0956 157.232 37.9869 157.334 37.9055L159.125 40.0305C158.978 40.1927 158.76 40.392 158.47 40.6285C158.183 40.8727 157.79 41.124 157.291 41.3825C156.534 41.7742 155.708 41.9953 154.813 42.0458C153.925 42.0924 153.071 41.9061 152.249 41.4867C151.435 41.0635 150.766 40.3447 150.241 39.3304L141.263 21.9814ZM168.228 35.9533C167.123 36.5251 166.012 36.836 164.896 36.8858C163.776 36.928 162.745 36.6888 161.804 36.1682C160.859 35.64 160.093 34.8082 159.505 33.6728C158.988 32.6737 158.766 31.7619 158.838 30.9375C158.907 30.1056 159.178 29.3414 159.653 28.6448C160.127 27.9483 160.717 27.3074 161.421 26.722C162.13 26.1252 162.862 25.5642 163.617 25.0391C164.606 24.3545 165.412 23.8078 166.035 23.3989C166.662 22.9785 167.082 22.6029 167.295 22.2722C167.515 21.9375 167.514 21.5544 167.29 21.123L167.243 21.0321C166.664 19.9119 165.907 19.2 164.972 18.8966C164.046 18.5893 162.965 18.7548 161.731 19.3933C160.452 20.0552 159.594 20.8542 159.157 21.7904C158.721 22.7265 158.519 23.5889 158.553 24.3775L155.54 24.7852C155.445 23.4905 155.624 22.3521 156.075 21.37C156.531 20.3764 157.148 19.5293 157.927 18.8285C158.71 18.1163 159.541 17.533 160.419 17.0786C160.979 16.7888 161.657 16.524 162.455 16.2842C163.255 16.0329 164.102 15.9354 164.995 15.9917C165.895 16.044 166.786 16.3652 167.667 16.9552C168.548 17.5453 169.347 18.5329 170.064 19.9181L176.01 31.4084L173.33 32.7949L172.108 30.4333L171.972 30.5038C171.986 30.9763 171.893 31.5379 171.692 32.1887C171.491 32.8395 171.117 33.4984 170.57 34.1654C170.023 34.8325 169.242 35.4284 168.228 35.9533ZM167.391 33.3347C168.451 32.7864 169.236 32.116 169.747 31.3237C170.266 30.5274 170.541 29.7041 170.571 28.8536C170.609 27.9993 170.439 27.2087 170.063 26.4821L168.794 24.0296C168.751 24.2246 168.566 24.4788 168.239 24.7921C167.915 25.0939 167.525 25.4157 167.069 25.7574C166.616 26.0877 166.17 26.4046 165.732 26.708C165.298 26.9999 164.947 27.2392 164.679 27.4259C164.03 27.877 163.455 28.3615 162.955 28.8792C162.459 29.3854 162.129 29.9351 161.966 30.5282C161.806 31.1098 161.903 31.7413 162.255 32.4225C162.737 33.3535 163.446 33.8793 164.381 33.9997C165.321 34.1087 166.324 33.887 167.391 33.3347ZM180.9 28.8776L171.876 11.4378L174.465 10.0982L175.828 12.7324L176.009 12.6384C175.881 11.611 176.094 10.6131 176.648 9.64483C177.203 8.67655 178.002 7.92215 179.047 7.38163C179.244 7.27979 179.492 7.15628 179.791 7.01109C180.09 6.8659 180.319 6.76171 180.478 6.69851L181.888 9.42349C181.786 9.44778 181.56 9.52143 181.211 9.64444C180.866 9.75596 180.515 9.90377 180.159 10.0879C179.312 10.5265 178.647 11.0961 178.165 11.7965C177.686 12.4855 177.415 13.2402 177.35 14.0607C177.289 14.8696 177.462 15.6677 177.869 16.4549L183.58 27.491L180.9 28.8776Z" fill="white"/>
</svg>
