<svg width="41" height="175" viewBox="0 0 41 175" fill="none" xmlns="http://www.w3.org/2000/svg">
<path d="M10.0409 151.66L9.93087 154.828C9.01298 154.984 8.20094 155.284 7.49475 155.729C6.78885 156.164 6.19014 156.707 5.6986 157.355C5.19884 157.994 4.81582 158.71 4.54953 159.502C4.28323 160.295 4.135 161.125 4.10484 161.994C4.04983 163.578 4.40033 165.027 5.15632 166.341C5.91262 167.647 7.05696 168.706 8.58936 169.518C10.1221 170.321 12.0212 170.763 14.2869 170.841C16.5526 170.92 18.4778 170.611 20.0626 169.916C21.6476 169.212 22.8626 168.235 23.7076 166.985C24.553 165.727 25.0031 164.306 25.0581 162.721C25.0883 161.853 24.998 161.014 24.7873 160.205C24.5766 159.396 24.2484 158.655 23.8027 157.983C23.3488 157.302 22.7849 156.72 22.1109 156.236C21.4288 155.743 20.6395 155.388 19.7431 155.169L19.8532 152C21.1821 152.285 22.3638 152.761 23.3981 153.428C24.4324 154.095 25.3038 154.91 26.0123 155.873C26.7122 156.835 27.2336 157.906 27.5764 159.086C27.9195 160.258 28.0681 161.504 28.0222 162.824C27.9448 165.056 27.3307 167.022 26.1801 168.721C25.0296 170.421 23.4319 171.734 21.3871 172.661C19.3424 173.588 16.9402 174.003 14.1805 173.908C11.4208 173.812 9.05313 173.231 7.07758 172.164C5.10203 171.098 3.59929 169.677 2.56937 167.902C1.53945 166.126 1.06323 164.123 1.14072 161.891C1.18656 160.571 1.42123 159.338 1.84474 158.193C2.26855 157.039 2.86724 156.007 3.6408 155.096C4.40584 154.184 5.3274 153.432 6.40547 152.838C7.47502 152.244 8.68682 151.851 10.0409 151.66ZM28.8793 139.615C28.8178 141.386 28.3422 142.926 27.4525 144.234C26.5631 145.534 25.3474 146.532 23.8052 147.229C22.2633 147.917 20.4788 148.226 18.4516 148.156C16.4074 148.085 14.6358 147.652 13.1369 146.858C11.6383 146.056 10.4904 144.975 9.69332 143.617C8.89651 142.251 8.52886 140.682 8.59037 138.91C8.65189 137.138 9.12733 135.603 10.0167 134.303C10.9064 132.995 12.1264 131.997 13.6768 131.309C15.2275 130.613 17.0249 130.3 19.0691 130.371C21.0963 130.441 22.855 130.878 24.3451 131.68C25.8355 132.473 26.9791 133.554 27.7759 134.92C28.573 136.278 28.9408 137.843 28.8793 139.615ZM26.1707 139.521C26.2174 138.175 25.9109 137.056 25.2511 136.163C24.5914 135.27 23.7066 134.595 22.5968 134.139C21.4869 133.683 20.2762 133.432 18.9644 133.386C17.6527 133.341 16.4232 133.507 15.2759 133.885C14.1285 134.263 13.1906 134.874 12.462 135.719C11.7334 136.563 11.3457 137.658 11.299 139.004C11.2522 140.35 11.563 141.469 12.2313 142.362C12.8996 143.255 13.7929 143.93 14.9112 144.387C16.0296 144.844 17.2446 145.095 18.5563 145.14C19.868 145.186 21.0933 145.02 22.2321 144.641C23.3709 144.263 24.3004 143.651 25.0205 142.806C25.7406 141.962 26.124 140.866 26.1707 139.521ZM16.7063 114.424L19.5171 114.521L19.1196 125.969L16.3088 125.871L16.7063 114.424ZM30.1993 101.598C30.1377 103.37 29.6621 104.91 28.7725 106.218C27.8831 107.517 26.6673 108.516 25.1252 109.212C23.5833 109.901 21.7988 110.21 19.7716 110.139C17.7274 110.069 15.9558 109.636 14.4569 108.842C12.9583 108.04 11.8104 106.959 11.0133 105.601C10.2165 104.235 9.84883 102.666 9.91034 100.894C9.97186 99.1223 10.4473 97.5868 11.3367 96.2873C12.2264 94.9793 13.4464 93.9813 14.9968 93.2932C16.5474 92.5966 18.3449 92.2838 20.3891 92.3547C22.4163 92.4251 24.1749 92.8614 25.665 93.6636C27.1554 94.4573 28.2991 95.5374 29.0959 96.9039C29.893 98.262 30.2608 99.8268 30.1993 101.598ZM27.4907 101.504C27.5374 100.159 27.2309 99.0394 26.5711 98.1466C25.9113 97.2539 25.0266 96.5793 23.9167 96.1229C22.8069 95.6665 21.5961 95.4155 20.2844 95.37C18.9727 95.3244 17.7432 95.4907 16.5958 95.8687C15.4485 96.2467 14.5105 96.858 13.7819 97.7026C13.0533 98.5471 12.6657 99.6423 12.6189 100.988C12.5722 102.334 12.883 103.453 13.5513 104.346C14.2195 105.239 15.1129 105.914 16.2312 106.371C17.3495 106.828 18.5646 107.079 19.8763 107.124C21.188 107.17 22.4133 107.003 23.5521 106.625C24.6909 106.247 25.6203 105.635 26.3404 104.79C27.0605 103.946 27.4439 102.85 27.4907 101.504ZM37.6182 88.3447L10.6344 87.4078L10.7356 84.4948L13.853 84.603L13.8654 84.2453C13.5324 84.012 13.1087 83.6903 12.5942 83.2801C12.0715 82.8612 11.6143 82.2739 11.2227 81.5184C10.8228 80.7541 10.6451 79.7331 10.6894 78.4555C10.7468 76.8031 11.2105 75.3609 12.0805 74.129C12.9504 72.8971 14.1558 71.9539 15.6964 71.2996C17.2371 70.6453 19.0381 70.3539 21.0993 70.4255C23.1776 70.4977 24.9668 70.9137 26.4669 71.6736C27.9585 72.4332 29.0999 73.4535 29.8912 74.7346C30.6739 76.0154 31.0369 77.4734 30.9801 79.1088C30.9363 80.3694 30.6926 81.3715 30.2489 82.1151C29.7967 82.8584 29.2952 83.4251 28.7444 83.8153C28.1851 84.2052 27.7227 84.5047 27.3573 84.7138L27.3484 84.9693L37.7229 85.3295L37.6182 88.3447ZM20.5496 84.7844C22.0317 84.8358 23.3467 84.664 24.4946 84.269C25.634 83.8736 26.5376 83.2697 27.2054 82.4571C27.8647 81.6443 28.2153 80.6331 28.2573 79.4236C28.3011 78.163 28.0054 77.0996 27.3703 76.2332C26.727 75.3581 25.8463 74.688 24.7283 74.2227C23.602 73.7487 22.3404 73.4874 20.9435 73.4389C19.5637 73.391 18.3127 73.5608 17.1907 73.9482C16.0604 74.3269 15.1568 74.9308 14.4798 75.7601C13.7947 76.5806 13.43 77.6296 13.3856 78.9072C13.343 80.1338 13.6181 81.1752 14.2109 82.0315C14.7952 82.8875 15.6336 83.5477 16.7261 84.012C17.8101 84.4761 19.0846 84.7335 20.5496 84.7844ZM31.7147 57.9511C31.6491 59.842 31.1751 61.4586 30.2928 62.801C29.4022 64.1345 28.1902 65.1456 26.6569 65.8343C25.1153 66.5142 23.3395 66.8192 21.3293 66.7494C19.3192 66.6796 17.5602 66.2519 16.0525 65.4661C14.5365 64.6716 13.3713 63.5992 12.5569 62.2491C11.7342 60.8902 11.3537 59.3249 11.4152 57.5533C11.4507 56.5312 11.6561 55.5278 12.0314 54.543C12.4067 53.5583 12.9918 52.6704 13.7868 51.8793C14.5733 51.088 15.601 50.4713 16.8699 50.0292C18.1388 49.5872 19.689 49.398 21.5202 49.4616L22.7979 49.5059L22.2726 64.6332L19.6663 64.5427L20.085 52.4818C18.9777 52.4433 17.982 52.6305 17.0978 53.0432C16.214 53.4474 15.5067 54.0454 14.9761 54.8371C14.4457 55.6204 14.1616 56.5571 14.1238 57.6473C14.0821 58.8483 14.3441 59.8978 14.9099 60.7958C15.4674 61.685 16.2108 62.3803 17.14 62.8816C18.0692 63.3829 19.0746 63.6523 20.1564 63.6899L21.894 63.7502C23.376 63.8016 24.6412 63.5897 25.6896 63.1145C26.7298 62.6304 27.5341 61.9377 28.1027 61.0364C28.6627 60.1349 28.9639 59.0751 29.0061 57.8571C29.0337 57.0649 28.9478 56.3456 28.7485 55.6991C28.541 55.0438 28.2197 54.474 27.7845 53.9899C27.3408 53.5055 26.7827 53.1237 26.1102 52.8445L27.029 49.9598C28.0064 50.3008 28.8573 50.8463 29.5817 51.5963C30.2976 52.346 30.8457 53.2605 31.2261 54.3397C31.598 55.4185 31.7609 56.6224 31.7147 57.9511ZM31.7473 45.2244L12.1228 44.543L12.2239 41.63L15.188 41.7329L15.1951 41.5285C14.2365 41.137 13.4711 40.4623 12.8989 39.5044C12.3267 38.5465 12.061 37.4798 12.1018 36.3044C12.1095 36.0829 12.1234 35.8062 12.1434 35.4744C12.1635 35.1425 12.185 34.8916 12.2079 34.7219L15.2743 34.8283C15.2452 34.9297 15.1987 35.1626 15.1349 35.5271C15.0628 35.8827 15.0199 36.2607 15.006 36.661C14.9728 37.615 15.1434 38.4737 15.5177 39.2372C15.8838 39.9918 16.4085 40.5984 17.0919 41.0571C17.767 41.5069 18.5475 41.7472 19.4333 41.778L31.852 42.2092L31.7473 45.2244ZM32.8725 26.079C32.8294 27.3226 32.556 28.443 32.0523 29.4403C31.5401 30.4374 30.8265 31.2185 29.9114 31.7836C28.9879 32.3485 27.8873 32.6088 26.6096 32.5644C25.4853 32.5254 24.5816 32.2723 23.8986 31.8051C23.207 31.3377 22.6739 30.7265 22.2993 29.9715C21.9247 29.2166 21.655 28.3886 21.4901 27.4874C21.317 26.5774 21.1867 25.6647 21.0991 24.7492C20.9872 23.5514 20.9058 22.5807 20.8548 21.837C20.7957 21.0845 20.6741 20.5345 20.49 20.1869C20.3062 19.8309 19.9716 19.6445 19.4861 19.6276L19.3839 19.6241C18.1233 19.5803 17.1318 19.8913 16.4094 20.5569C15.6873 21.2141 15.3021 22.2369 15.2539 23.6252C15.2039 25.0647 15.4799 26.2042 16.0818 27.0438C16.6837 27.8834 17.3366 28.4817 18.0406 28.8387L16.9191 31.6651C15.7444 31.1127 14.8396 30.399 14.2048 29.5242C13.5618 28.6405 13.1259 27.6873 12.897 26.6646C12.6599 25.633 12.5586 24.6232 12.5929 23.6352C12.6147 23.0049 12.7165 22.2835 12.8983 21.4712C13.0717 20.65 13.4018 19.8641 13.8883 19.1135C14.3752 18.3543 15.0917 17.7354 16.0379 17.2565C16.984 16.7777 18.2365 16.5654 19.7952 16.6195L32.7249 17.0684L32.6202 20.0837L29.9627 19.9914L29.9574 20.1447C30.3762 20.3639 30.82 20.7204 31.289 21.2143C31.7579 21.7081 32.149 22.357 32.4622 23.161C32.7754 23.965 32.9122 24.9376 32.8725 26.079ZM30.1799 25.525C30.2213 24.3325 30.022 23.3193 29.5819 22.4854C29.1421 21.6429 28.559 21.0001 27.8324 20.557C27.1062 20.1054 26.3342 19.8654 25.5165 19.837L22.7568 19.7412C22.9057 19.8743 23.0365 20.1602 23.1492 20.5991C23.2536 21.0291 23.343 21.5268 23.4171 22.0922C23.4831 22.6488 23.541 23.1924 23.5908 23.7228C23.6323 24.2445 23.6688 24.6678 23.7002 24.993C23.7752 25.7802 23.9158 26.5184 24.1221 27.2078C24.3202 27.8884 24.6378 28.4452 25.0747 28.8783C25.5034 29.3025 26.1011 29.5279 26.8676 29.5545C27.9153 29.5909 28.7209 29.2309 29.2844 28.4744C29.8397 27.7091 30.1382 26.726 30.1799 25.525ZM32.916 11.565L13.2914 10.8836L13.3926 7.9706L16.3567 8.07351L16.3638 7.86909C15.4052 7.47764 14.6398 6.80294 14.0676 5.84501C13.4954 4.88708 13.2297 3.8204 13.2705 2.64497C13.2782 2.42351 13.2921 2.14684 13.3121 1.81495C13.3322 1.48306 13.3537 1.23223 13.3766 1.06247L16.4429 1.16894C16.4138 1.27026 16.3674 1.50317 16.3036 1.86765C16.2315 2.22332 16.1885 2.60131 16.1746 3.00164C16.1415 3.95561 16.3121 4.81432 16.6864 5.57777C17.0525 6.3324 17.5772 6.93905 18.2606 7.39769C18.9357 7.84753 19.7162 8.08782 20.602 8.11858L33.0207 8.54977L32.916 11.565Z" fill="white"/>
</svg>
