<svg width="79" height="19" viewBox="0 0 79 19" fill="none" xmlns="http://www.w3.org/2000/svg">
<path d="M14.759 6.5656L12.6453 6.56504C12.5205 5.95705 12.3019 5.4229 11.9895 4.96259C11.6828 4.50228 11.3079 4.11581 10.8648 3.80319C10.4274 3.48489 9.94169 3.24613 9.40764 3.08689C8.87359 2.92766 8.3168 2.84796 7.73725 2.84781C6.68043 2.84752 5.72297 3.11431 4.86488 3.64817C4.01246 4.18203 3.33327 4.96878 2.82731 6.00842C2.32703 7.04806 2.07669 8.32356 2.07628 9.83492C2.07588 11.3463 2.32553 12.6219 2.82525 13.6618C3.33066 14.7017 4.00942 15.4889 4.86155 16.0232C5.71936 16.5575 6.67668 16.8248 7.73349 16.8251C8.31304 16.8252 8.86988 16.7458 9.40401 16.5869C9.93815 16.4279 10.424 16.1923 10.8616 15.8799C11.3049 15.5618 11.68 15.1727 11.9869 14.7126C12.2995 14.2468 12.5184 13.7127 12.6436 13.1105L14.7572 13.1111C14.5979 14.0031 14.3079 14.8013 13.8873 15.5057C13.4666 16.2101 12.9437 16.8094 12.3186 17.3036C11.6935 17.7921 10.9917 18.164 10.2132 18.4195C9.44038 18.675 8.61364 18.8026 7.73296 18.8024C6.24433 18.802 4.92056 18.438 3.76166 17.7104C2.60277 16.9828 1.69112 15.9485 1.0267 14.6074C0.362291 13.2663 0.0303321 11.6753 0.0308268 9.83437C0.0313215 7.99346 0.364135 6.40264 1.02927 5.06191C1.6944 3.72118 2.60661 2.68734 3.7659 1.96038C4.92518 1.23342 6.24915 0.870135 7.73778 0.870535C8.61846 0.870771 9.44513 0.998835 10.2178 1.25472C10.9961 1.51062 11.6977 1.8858 12.3226 2.38029C12.9475 2.86909 13.47 3.46583 13.8903 4.17048C14.3106 4.86946 14.6001 5.66783 14.759 6.5656ZM26.1499 13.2164L26.152 5.47776L28.1634 5.4783L28.1599 18.5692L26.1485 18.5687L26.1491 16.3528L26.0127 16.3527C25.7057 17.0174 25.2283 17.5826 24.5805 18.0484C23.9326 18.5084 23.1144 18.7383 22.1257 18.738C21.3076 18.7378 20.5803 18.5586 19.9441 18.2005C19.3078 17.8367 18.8079 17.2911 18.4445 16.5638C18.0811 15.8307 17.8995 14.9074 17.8998 13.7937L17.902 5.47554L19.9134 5.47608L19.9112 13.6579C19.9109 14.6124 20.1778 15.3739 20.7117 15.9422C21.2513 16.5105 21.9388 16.7948 22.774 16.795C23.274 16.7952 23.7825 16.6675 24.2997 16.4119C24.8225 16.1564 25.2601 15.7644 25.6125 15.2361C25.9706 14.7078 26.1497 14.0346 26.1499 13.2164ZM33.8599 1.11619L33.8552 18.5707L31.8438 18.5702L31.8485 1.11565L33.8599 1.11619ZM43.2358 5.48235L43.2354 7.18689L36.4513 7.18507L36.4517 5.48052L43.2358 5.48235ZM38.4299 2.34469L40.4412 2.34523L40.4379 14.8225C40.4377 15.3907 40.52 15.8168 40.6847 16.101C40.8551 16.3794 41.0709 16.567 41.3323 16.6637C41.5993 16.7546 41.8805 16.8002 42.176 16.8002C42.3976 16.8003 42.5794 16.789 42.7214 16.7663C42.8635 16.7379 42.9771 16.7152 43.0624 16.6982L43.471 18.5051C43.3346 18.5562 43.1442 18.6073 42.8999 18.6584C42.6556 18.7151 42.3459 18.7435 41.9709 18.7434C41.4027 18.7432 40.8459 18.6209 40.3005 18.3764C39.7608 18.132 39.3121 17.7597 38.9543 17.2596C38.6021 16.7595 38.4262 16.1288 38.4264 15.3674L38.4299 2.34469ZM54.5093 13.224L54.5114 5.48538L56.5228 5.48592L56.5192 18.5768L54.5079 18.5763L54.5085 16.3604L54.3721 16.3603C54.0651 17.025 53.5877 17.5902 52.9398 18.056C52.292 18.516 51.4737 18.7459 50.4851 18.7457C49.6669 18.7454 48.9397 18.5663 48.3034 18.2081C47.6672 17.8443 47.1673 17.2987 46.8039 16.5714C46.4404 15.8383 46.2589 14.915 46.2592 13.8013L46.2614 5.48316L48.2728 5.4837L48.2706 13.6655C48.2703 14.6201 48.5371 15.3815 49.0711 15.9498C49.6107 16.5182 50.2981 16.8024 51.1334 16.8027C51.6334 16.8028 52.1419 16.6751 52.659 16.4195C53.1818 16.164 53.6194 15.7721 53.9718 15.2438C54.3299 14.7154 54.5091 14.0422 54.5093 13.224ZM60.2032 18.5778L60.2067 5.48691L62.1499 5.48743L62.1494 7.4647L62.2857 7.46474C62.5245 6.81708 62.9565 6.29162 63.5816 5.88838C64.2067 5.48514 64.9113 5.28363 65.6954 5.28384C65.8431 5.28388 66.0278 5.28677 66.2494 5.29251C66.471 5.29825 66.6386 5.30682 66.7522 5.31821L66.7517 7.36367C66.6835 7.3466 66.5272 7.32099 66.2829 7.28684C66.0443 7.247 65.7915 7.22705 65.5244 7.22697C64.8881 7.2268 64.3198 7.36017 63.8198 7.62708C63.3254 7.88831 62.9332 8.25185 62.6433 8.71768C62.3591 9.17783 62.2169 9.70336 62.2168 10.2943L62.2146 18.5784L60.2032 18.5778ZM72.9851 18.8881C72.1555 18.8878 71.4027 18.7314 70.7267 18.4187C70.0506 18.1003 69.5138 17.6428 69.1162 17.0461C68.7187 16.4437 68.52 15.7164 68.5202 14.8641C68.5204 14.1141 68.6683 13.5062 68.9639 13.0404C69.2595 12.5689 69.6545 12.1997 70.1489 11.9328C70.6433 11.6658 71.1888 11.4671 71.7854 11.3366C72.3877 11.2004 72.9928 11.0926 73.6008 11.0132C74.3963 10.9112 75.0412 10.8346 75.5355 10.7836C76.0356 10.727 76.3992 10.6333 76.6265 10.5027C76.8595 10.3721 76.9761 10.1448 76.9761 9.82096L76.9762 9.75278C76.9764 8.91187 76.7465 8.2584 76.2863 7.79237C75.8319 7.32633 75.1416 7.09319 74.2155 7.09295C73.2553 7.09269 72.5024 7.30271 71.9568 7.72302C71.4113 8.14333 71.0276 8.59209 70.8059 9.0693L68.897 8.38697C69.2381 7.59161 69.6928 6.97241 70.2611 6.52938C70.8351 6.08067 71.4602 5.76834 72.1364 5.59239C72.8182 5.41075 73.4887 5.32002 74.1478 5.3202C74.5683 5.32031 75.0512 5.37158 75.5966 5.474C76.1477 5.57074 76.6789 5.77258 77.1902 6.07954C77.7072 6.3865 78.136 6.84968 78.4768 7.46909C78.8175 8.0885 78.9878 8.91809 78.9875 9.95786L78.9852 18.5829L76.9738 18.5823L76.9743 16.8096L76.872 16.8096C76.7356 17.0936 76.5082 17.3975 76.1899 17.7213C75.8717 18.0451 75.4483 18.3206 74.9198 18.5477C74.3914 18.7748 73.7464 18.8883 72.9851 18.8881ZM73.2924 17.0813C74.0878 17.0815 74.7583 16.9255 75.3039 16.6131C75.8551 16.3008 76.27 15.8975 76.5485 15.4032C76.8327 14.909 76.9749 14.3891 76.9751 13.8437L76.9756 12.0028C76.8903 12.105 76.7028 12.1987 76.413 12.2839C76.1289 12.3633 75.7993 12.4343 75.4243 12.4967C75.055 12.5534 74.6941 12.6044 74.3419 12.6498C73.9953 12.6895 73.714 12.7235 73.4981 12.7518C72.9753 12.8199 72.4867 12.9305 72.0321 13.0838C71.5832 13.2314 71.2195 13.4558 70.941 13.7568C70.6682 14.0522 70.5317 14.4556 70.5316 14.967C70.5314 15.6658 70.7898 16.1943 71.3067 16.5524C71.8294 16.9048 72.4912 17.0811 73.2924 17.0813Z" fill="white"/>
</svg>
