<svg width="121" height="18" viewBox="0 0 121 18" fill="none" xmlns="http://www.w3.org/2000/svg">
<path d="M5.75288 17.5618L0.366519 17.5604L0.37121 0.105849L5.99621 0.10736C7.68939 0.107815 9.13816 0.457637 10.3425 1.15682C11.5469 1.85033 12.4699 2.84774 13.1116 4.14905C13.7533 5.44467 14.0739 6.9959 14.0734 8.80271C14.0729 10.6209 13.7486 12.1861 13.1006 13.4985C12.4525 14.8051 11.509 15.8105 10.2702 16.5148C9.03139 17.2133 7.52561 17.5623 5.75288 17.5618ZM2.48066 15.686L5.61702 15.6868C7.0602 15.6872 8.2563 15.4091 9.20532 14.8525C10.1543 14.296 10.8619 13.5036 11.3281 12.4753C11.7943 11.447 12.0276 10.2226 12.028 8.80216C12.0283 7.39307 11.7986 6.17994 11.3386 5.16277C10.8786 4.13992 10.1914 3.35565 9.27673 2.80995C8.36211 2.25856 7.22298 1.98269 5.85934 1.98232L2.48434 1.98142L2.48066 15.686ZM22.8324 17.8392C21.571 17.8388 20.483 17.5601 19.5684 17.0031C18.6594 16.4403 17.9579 15.656 17.4639 14.6502C16.9755 13.6387 16.7315 12.4625 16.7319 11.1216C16.7322 9.7807 16.9769 8.59895 17.4658 7.57635C17.9604 6.54808 18.6481 5.74712 19.5289 5.1735C20.4155 4.59419 21.4496 4.3047 22.6314 4.30501C23.3133 4.3052 23.9865 4.41901 24.6512 4.64646C25.316 4.87392 25.921 5.2434 26.4663 5.75491C27.0116 6.26074 27.4461 6.93131 27.7697 7.76662C28.0934 8.60194 28.255 9.63039 28.2547 10.852L28.2545 11.7043L18.1635 11.7015L18.164 9.9629L26.2095 9.96507C26.2097 9.22643 26.0621 8.5673 25.7668 7.98767C25.4772 7.40805 25.0626 6.95055 24.5229 6.61518C23.9889 6.27981 23.3582 6.11203 22.631 6.11183C21.8298 6.11162 21.1366 6.31029 20.5513 6.70786C19.9716 7.09975 19.5254 7.611 19.2128 8.24159C18.9001 8.87219 18.7437 9.54829 18.7435 10.2699L18.7432 11.429C18.7429 12.4176 18.9131 13.2557 19.2539 13.9433C19.6003 14.6252 20.0802 15.1452 20.6938 15.5034C21.3073 15.8558 22.0203 16.0321 22.8328 16.0323C23.3612 16.0325 23.8385 15.9587 24.2647 15.8111C24.6966 15.6578 25.0688 15.4307 25.3814 15.1296C25.694 14.8229 25.9355 14.4423 26.1061 13.9878L28.0492 14.5337C27.8444 15.1928 27.5005 15.7722 27.0174 16.2721C26.5343 16.7663 25.9377 17.1525 25.2273 17.4307C24.517 17.7032 23.7187 17.8394 22.8324 17.8392ZM40.588 7.41211L38.781 7.92299C38.6675 7.62182 38.5 7.32916 38.2784 7.04501C38.0626 6.75518 37.7672 6.51647 37.3923 6.32887C37.0173 6.14127 36.5372 6.04739 35.952 6.04723C35.1509 6.04701 34.4832 6.23149 33.949 6.60067C33.4205 6.96416 33.1562 7.42716 33.156 7.98966C33.1559 8.48966 33.3376 8.88459 33.7012 9.17447C34.0647 9.46434 34.6328 9.70597 35.4055 9.89936L37.3486 10.3772C38.5189 10.6616 39.391 11.0964 39.9647 11.6818C40.5384 12.2615 40.8251 13.0088 40.8249 13.9235C40.8247 14.6735 40.6086 15.3439 40.1766 15.9347C39.7503 16.5255 39.1536 16.9913 38.3865 17.332C37.6193 17.6727 36.7272 17.8429 35.7102 17.8426C34.375 17.8423 33.2699 17.5522 32.3951 16.9724C31.5202 16.3926 30.9665 15.5459 30.7338 14.4322L32.6431 13.9554C32.8247 14.66 33.1683 15.1885 33.6739 15.5409C34.1851 15.8933 34.8527 16.0697 35.6766 16.0699C36.6141 16.0701 37.3585 15.8715 37.9097 15.4739C38.4666 15.0706 38.7452 14.5878 38.7453 14.0253C38.7454 13.5707 38.5864 13.19 38.2683 12.8831C37.9502 12.5705 37.4617 12.3374 36.8026 12.1838L34.6209 11.6719C33.4222 11.3875 32.5416 10.9469 31.9793 10.3501C31.4226 9.74772 31.1444 8.9948 31.1446 8.09139C31.1448 7.35276 31.3524 6.6994 31.7673 6.13133C32.1879 5.56326 32.7591 5.11739 33.4807 4.79372C34.2081 4.47006 35.032 4.30835 35.9525 4.30859C37.2479 4.30894 38.2649 4.59331 39.0034 5.16168C39.7475 5.73007 40.2757 6.48021 40.588 7.41211ZM47.7038 17.8799C46.8742 17.8797 46.1214 17.7233 45.4454 17.4106C44.7693 17.0922 44.2325 16.6347 43.835 16.038C43.4374 15.4356 43.2387 14.7083 43.239 13.856C43.2392 13.106 43.3871 12.4981 43.6826 12.0323C43.9782 11.5607 44.3732 11.1915 44.8676 10.9246C45.362 10.6577 45.9075 10.459 46.5041 10.3285C47.1064 10.1923 47.7116 10.0845 48.3195 10.0051C49.115 9.90304 49.7599 9.82651 50.2543 9.7755C50.7543 9.71882 51.1179 9.62517 51.3452 9.49455C51.5782 9.36393 51.6948 9.13669 51.6949 8.81282L51.6949 8.74464C51.6951 7.90373 51.4652 7.25026 51.0051 6.78423C50.5506 6.3182 49.8604 6.08506 48.9342 6.08481C47.974 6.08455 47.2211 6.29458 46.6755 6.71488C46.13 7.13519 45.7463 7.58395 45.5246 8.06116L43.6157 7.37883C43.9568 6.58347 44.4115 5.96428 44.9798 5.52125C45.5538 5.07254 46.1789 4.7602 46.8551 4.58425C47.537 4.40262 48.2074 4.31189 48.8665 4.31206C49.287 4.31218 49.7699 4.36344 50.3154 4.46586C50.8665 4.5626 51.3977 4.76445 51.9089 5.0714C52.4259 5.37836 52.8548 5.84154 53.1955 6.46095C53.5362 7.08036 53.7065 7.90995 53.7062 8.94973L53.7039 17.5747L51.6925 17.5742L51.693 15.8015L51.5907 15.8014C51.4543 16.0855 51.2269 16.3894 50.9087 16.7132C50.5904 17.037 50.167 17.3124 49.6385 17.5395C49.1101 17.7667 48.4652 17.8801 47.7038 17.8799ZM48.0111 16.0732C48.8065 16.0734 49.477 15.9173 50.0226 15.605C50.5738 15.2926 50.9887 14.8893 51.2672 14.3951C51.5515 13.9009 51.6936 13.381 51.6938 12.8356L51.6943 10.9946C51.609 11.0969 51.4215 11.1906 51.1317 11.2757C50.8476 11.3552 50.518 11.4261 50.143 11.4885C49.7737 11.5453 49.4129 11.5963 49.0606 11.6417C48.714 11.6813 48.4327 11.7154 48.2168 11.7437C47.6941 11.8117 47.2054 11.9224 46.7508 12.0757C46.3019 12.2233 45.9382 12.4476 45.6597 12.7487C45.3869 13.0441 45.2504 13.4475 45.2503 13.9588C45.2501 14.6577 45.5085 15.1862 46.0254 15.5443C46.5481 15.8967 47.21 16.073 48.0111 16.0732ZM57.375 17.5757L57.3786 4.48481L59.3217 4.48533L59.3212 6.4626L59.4576 6.46264C59.6964 5.81497 60.1283 5.28952 60.7534 4.88628C61.3786 4.48304 62.0832 4.28152 62.8672 4.28173C63.015 4.28177 63.1996 4.28466 63.4212 4.29041C63.6428 4.29615 63.8104 4.30472 63.9241 4.31611L63.9235 6.36156C63.8553 6.3445 63.6991 6.31889 63.4548 6.28473C63.2162 6.2449 62.9633 6.22494 62.6963 6.22487C62.0599 6.2247 61.4917 6.35807 60.9916 6.62498C60.4972 6.88621 60.1051 7.24974 59.8152 7.71557C59.531 8.17572 59.3888 8.70125 59.3886 9.29216L59.3864 17.5763L57.375 17.5757ZM66.3047 17.5781L66.3082 4.4872L68.2514 4.48773L68.2509 6.465L68.3873 6.46504C68.6261 5.81737 69.058 5.29192 69.6831 4.88868C70.3082 4.48544 71.0128 4.28392 71.7969 4.28413C71.9447 4.28417 72.1293 4.28706 72.3509 4.29281C72.5725 4.29855 72.7401 4.30712 72.8537 4.31851L72.8532 6.36396C72.785 6.3469 72.6288 6.32129 72.3845 6.28713C72.1458 6.2473 71.893 6.22734 71.626 6.22727C70.9896 6.2271 70.4214 6.36047 69.9213 6.62738C69.4269 6.88861 69.0348 7.25214 68.7449 7.71797C68.4607 8.17812 68.3185 8.70365 68.3183 9.29456L68.3161 17.5787L66.3047 17.5781ZM80.1541 17.8546C78.9723 17.8542 77.9354 17.5727 77.0435 17.01C76.1573 16.4472 75.4643 15.6601 74.9646 14.6486C74.4706 13.6371 74.2237 12.4552 74.2241 11.103C74.2244 9.73933 74.4719 8.54906 74.9665 7.53215C75.4668 6.51523 76.1602 5.72565 77.0467 5.16339C77.9389 4.60113 78.9759 4.32016 80.1577 4.32047C81.3395 4.32079 82.3736 4.60232 83.2598 5.16506C84.1517 5.7278 84.8446 6.51775 85.3387 7.53493C85.8384 8.55211 86.0881 9.74252 86.0877 11.1062C86.0874 12.4584 85.837 13.6402 85.3368 14.6514C84.8422 15.6626 84.1488 16.4494 83.2566 17.0116C82.3701 17.5739 81.3359 17.8549 80.1541 17.8546ZM80.1546 16.0477C81.0523 16.048 81.791 15.8181 82.3707 15.358C82.9503 14.8979 83.3795 14.2929 83.6581 13.543C83.9367 12.7931 84.0761 11.9806 84.0764 11.1056C84.0766 10.2306 83.9376 9.41524 83.6594 8.65948C83.3812 7.90373 82.9524 7.29281 82.373 6.82675C81.7935 6.36068 81.055 6.12753 80.1572 6.12729C79.2595 6.12705 78.5208 6.3598 77.9411 6.82556C77.3615 7.29131 76.9323 7.90199 76.6537 8.6576C76.3751 9.41321 76.2357 10.2285 76.2354 11.1035C76.2352 11.9785 76.3742 12.791 76.6524 13.5411C76.9306 14.2912 77.3594 14.8964 77.9388 15.3568C78.5183 15.8172 79.2568 16.0475 80.1546 16.0477ZM91.1723 0.13025L91.1677 17.5848L89.1563 17.5843L89.161 0.12971L91.1723 0.13025ZM96.8677 0.131781L96.863 17.5863L94.8516 17.5858L94.8563 0.13124L96.8677 0.131781ZM104.399 17.8952C103.57 17.8949 102.817 17.7385 102.141 17.4258C101.465 17.1074 100.928 16.6499 100.53 16.0532C100.133 15.4508 99.934 14.7235 99.9343 13.8712C99.9345 13.1212 100.082 12.5133 100.378 12.0475C100.674 11.576 101.069 11.2068 101.563 10.9399C102.057 10.6729 102.603 10.4742 103.199 10.3437C103.802 10.2075 104.407 10.0997 105.015 10.0203C105.81 9.91828 106.455 9.84174 106.95 9.79074C107.45 9.73406 107.813 9.6404 108.041 9.50978C108.274 9.37916 108.39 9.15192 108.39 8.82806L108.39 8.75988C108.39 7.91897 108.16 7.2655 107.7 6.79947C107.246 6.33343 106.556 6.10029 105.63 6.10005C104.669 6.09979 103.916 6.30981 103.371 6.73012C102.825 7.15043 102.442 7.59919 102.22 8.0764L100.311 7.39407C100.652 6.59871 101.107 5.97951 101.675 5.53648C102.249 5.08777 102.874 4.77544 103.55 4.59949C104.232 4.41785 104.903 4.32712 105.562 4.3273C105.982 4.32741 106.465 4.37868 107.011 4.4811C107.562 4.57784 108.093 4.77968 108.604 5.08664C109.121 5.3936 109.55 5.85678 109.891 6.47619C110.232 7.0956 110.402 7.92519 110.402 8.96496L110.399 17.59L108.388 17.5894L108.388 15.8167L108.286 15.8167C108.15 16.1007 107.922 16.4046 107.604 16.7284C107.286 17.0522 106.862 17.3276 106.334 17.5548C105.805 17.7819 105.16 17.8954 104.399 17.8952ZM104.706 16.0884C105.502 16.0886 106.172 15.9326 106.718 15.6202C107.269 15.3079 107.684 14.9046 107.963 14.4103C108.247 13.9161 108.389 13.3962 108.389 12.8508L108.39 11.0099C108.304 11.1121 108.117 11.2058 107.827 11.291C107.543 11.3704 107.213 11.4414 106.838 11.5038C106.469 11.5605 106.108 11.6115 105.756 11.6569C105.409 11.6966 105.128 11.7306 104.912 11.7589C104.389 11.827 103.901 11.9376 103.446 12.0909C102.997 12.2385 102.634 12.4629 102.355 12.7639C102.082 13.0593 101.946 13.4627 101.946 13.9741C101.945 14.6729 102.204 15.2014 102.721 15.5595C103.243 15.9119 103.905 16.0882 104.706 16.0884ZM114.07 17.591L114.074 4.50004L116.017 4.50056L116.017 6.47784L116.153 6.47787C116.392 5.83021 116.824 5.30476 117.449 4.90152C118.074 4.49827 118.778 4.29676 119.563 4.29697C119.71 4.29701 119.895 4.2999 120.117 4.30564C120.338 4.31138 120.506 4.31995 120.619 4.33135L120.619 6.3768C120.551 6.35974 120.394 6.33413 120.15 6.29997C119.911 6.26013 119.659 6.24018 119.392 6.24011C118.755 6.23994 118.187 6.37331 117.687 6.64022C117.193 6.90145 116.8 7.26498 116.51 7.73081C116.226 8.19096 116.084 8.71649 116.084 9.3074L116.082 17.5915L114.07 17.591Z" fill="white"/>
</svg>
