<svg width="108" height="19" viewBox="0 0 108 19" fill="none" xmlns="http://www.w3.org/2000/svg">
<path d="M5.92863 18.5633L0.54227 18.5618L0.546961 1.10727L6.17196 1.10878C7.86514 1.10923 9.31391 1.45906 10.5183 2.15824C11.7226 2.85175 12.6457 3.84915 13.2874 5.15046C13.929 6.44609 14.2497 7.99731 14.2492 9.80413C14.2487 11.6223 13.9244 13.1876 13.2763 14.4999C12.6282 15.8065 11.6848 16.812 10.446 17.5162C9.20714 18.2147 7.70136 18.5637 5.92863 18.5633ZM2.65641 16.6874L5.79277 16.6882C7.23596 16.6886 8.43205 16.4105 9.38107 15.854C10.3301 15.2974 11.0377 14.505 11.5039 13.4767C11.97 12.4484 12.2033 11.224 12.2037 9.80358C12.2041 8.39449 11.9743 7.18136 11.5144 6.16419C11.0544 5.14134 10.3671 4.35707 9.45248 3.81136C8.53786 3.25998 7.39873 2.98411 6.03509 2.98374L2.66009 2.98284L2.65641 16.6874ZM23.0081 18.8406C21.7467 18.8402 20.6587 18.5615 19.7441 18.0045C18.8352 17.4417 18.1337 16.6574 17.6396 15.6516C17.1513 14.6401 16.9073 13.4639 16.9076 12.123C16.908 10.7821 17.1526 9.60037 17.6415 8.57777C18.1361 7.54949 18.8239 6.74854 19.7047 6.17492C20.5912 5.59561 21.6254 5.30611 22.8072 5.30643C23.489 5.30662 24.1623 5.42043 24.827 5.64788C25.4917 5.87533 26.0967 6.24482 26.642 6.75633C27.1874 7.26215 27.6218 7.93273 27.9455 8.76804C28.2691 9.60335 28.4308 10.6318 28.4304 11.8534L28.4302 12.7057L18.3393 12.703L18.3398 10.9643L26.3852 10.9665C26.3854 10.2278 26.2379 9.56872 25.9426 8.98909C25.653 8.40947 25.2383 7.95197 24.6986 7.6166C24.1646 7.28123 23.534 7.11344 22.8067 7.11325C22.0056 7.11303 21.3123 7.31171 20.727 7.70928C20.1474 8.10117 19.7012 8.61241 19.3885 9.24301C19.0759 9.87361 18.9194 10.5497 18.9192 11.2713L18.9189 12.4304C18.9187 13.419 19.0889 14.2571 19.4296 14.9447C19.776 15.6266 20.256 16.1467 20.8695 16.5048C21.4831 16.8572 22.1961 17.0335 23.0086 17.0338C23.537 17.0339 24.0143 16.9602 24.4405 16.8126C24.8723 16.6593 25.2445 16.4321 25.5571 16.131C25.8697 15.8243 26.1113 15.4437 26.2819 14.9892L28.2249 15.5352C28.0202 16.1942 27.6763 16.7736 27.1932 17.2735C26.7101 17.7677 26.1134 18.1539 25.4031 18.4321C24.6928 18.7047 23.8945 18.8408 23.0081 18.8406ZM40.7637 8.41353L38.9568 8.92441C38.8432 8.62324 38.6757 8.33058 38.4542 8.04643C38.2384 7.7566 37.943 7.51789 37.568 7.33028C37.1931 7.14268 36.713 7.0488 36.1278 7.04865C35.3266 7.04843 34.659 7.23291 34.1248 7.60209C33.5963 7.96558 33.3319 8.42858 33.3318 8.99108C33.3316 9.49108 33.5134 9.88601 33.8769 10.1759C34.2405 10.4658 34.8086 10.7074 35.5813 10.9008L37.5243 11.3786C38.6947 11.663 39.5667 12.0979 40.1404 12.6832C40.7141 13.2629 41.0009 14.0102 41.0006 14.925C41.0004 15.675 40.7843 16.3454 40.3524 16.9361C39.9261 17.5269 39.3294 17.9927 38.5622 18.3334C37.7951 18.6741 36.903 18.8443 35.8859 18.844C34.5507 18.8437 33.4457 18.5536 32.5708 17.9738C31.696 17.394 31.1422 16.5473 30.9096 15.4336L32.8188 14.9568C33.0004 15.6614 33.344 16.1899 33.8496 16.5424C34.3609 16.8948 35.0285 17.0711 35.8523 17.0713C36.7898 17.0716 37.5342 16.8729 38.0854 16.4753C38.6424 16.0721 38.9209 15.5892 38.9211 15.0267C38.9212 14.5721 38.7622 14.1914 38.4441 13.8845C38.126 13.5719 37.6374 13.3388 36.9784 13.1852L34.7967 12.6733C33.5979 12.3889 32.7173 11.9483 32.155 11.3516C31.5983 10.7491 31.3201 9.99622 31.3204 9.09281C31.3206 8.35417 31.5281 7.70082 31.9431 7.13275C32.3637 6.56468 32.9348 6.11881 33.6565 5.79514C34.3839 5.47147 35.2078 5.30976 36.1282 5.31001C37.4237 5.31036 38.4406 5.59472 39.1791 6.1631C39.9233 6.73149 40.4515 7.48163 40.7637 8.41353ZM49.3455 18.8477C48.1182 18.8473 47.0614 18.5573 46.1752 17.9775C45.289 17.3977 44.6074 16.5992 44.1304 15.582C43.6534 14.5649 43.4151 13.4029 43.4155 12.0961C43.4158 10.7665 43.6604 9.59329 44.1494 8.57637C44.644 7.55378 45.3317 6.75567 46.2125 6.18204C47.099 5.60273 48.1332 5.31324 49.315 5.31356C50.2355 5.3138 51.065 5.48448 51.8035 5.82559C52.5421 6.1667 53.147 6.64413 53.6185 7.25789C54.0899 7.87166 54.3823 8.58764 54.4957 9.40586L52.4844 9.40532C52.3311 8.80868 51.9903 8.28018 51.4621 7.81981C50.9395 7.35376 50.235 7.12062 49.3486 7.12038C48.5645 7.12017 47.877 7.32453 47.2859 7.73346C46.7006 8.13672 46.2431 8.70762 45.9133 9.44616C45.5893 10.179 45.4271 11.0398 45.4268 12.0284C45.4266 13.0398 45.5854 13.9205 45.9034 14.6706C46.2271 15.4207 46.6815 16.0032 47.2666 16.4181C47.8574 16.8331 48.5505 17.0406 49.3459 17.0408C49.8687 17.041 50.3431 16.9502 50.7693 16.7685C51.1955 16.5868 51.5564 16.3255 51.8519 15.9847C52.1475 15.6439 52.3578 15.2348 52.4829 14.7576L54.4943 14.7581C54.3804 15.5308 54.099 16.2268 53.65 16.846C53.2066 17.4595 52.6184 17.948 51.8854 18.3114C51.158 18.6692 50.3114 18.8479 49.3455 18.8477ZM65.685 13.227L65.6871 5.48841L67.6985 5.48895L67.695 18.5799L65.6836 18.5793L65.6842 16.3634L65.5478 16.3634C65.2408 17.0281 64.7634 17.5933 64.1156 18.059C63.4677 18.5191 62.6495 18.749 61.6608 18.7487C60.8426 18.7485 60.1154 18.5693 59.4792 18.2112C58.8429 17.8474 58.343 17.3018 57.9796 16.5744C57.6162 15.8414 57.4346 14.918 57.4349 13.8044L57.4371 5.48619L59.4485 5.48673L59.4463 13.6686C59.446 14.6231 59.7129 15.3845 60.2468 15.9529C60.7864 16.5212 61.4739 16.8055 62.3091 16.8057C62.8091 16.8058 63.3176 16.6781 63.8347 16.4226C64.3575 16.167 64.7952 15.7751 65.1476 15.2468C65.5057 14.7185 65.6848 14.0452 65.685 13.227ZM71.6516 18.5809L71.6563 1.12638L73.6677 1.12692L73.666 7.5701L73.8364 7.57014C73.9842 7.34291 74.1888 7.05319 74.4503 6.70099C74.7174 6.34311 75.0982 6.02503 75.5926 5.74675C76.0927 5.4628 76.7688 5.32093 77.6211 5.32116C78.7234 5.32146 79.6949 5.59729 80.5357 6.14865C81.3764 6.70001 82.0325 7.48144 82.5038 8.49293C82.9751 9.50442 83.2106 10.6977 83.2102 12.0727C83.2098 13.459 82.9737 14.6607 82.5019 15.6776C82.03 16.6888 81.3764 17.4727 80.541 18.0293C79.7056 18.5802 78.7425 18.8556 77.6516 18.8553C76.8107 18.855 76.1374 18.7157 75.6318 18.4371C75.1262 18.1529 74.7371 17.8318 74.4644 17.4737C74.1918 17.11 73.9817 16.8088 73.834 16.5701L73.5954 16.5701L73.5948 18.5814L71.6516 18.5809ZM73.6307 12.036C73.6304 13.0246 73.7751 13.8968 74.0646 14.6526C74.3542 15.4027 74.7773 15.9909 75.334 16.4171C75.8907 16.8377 76.5725 17.0482 77.3793 17.0484C78.2202 17.0486 78.922 16.8272 79.4846 16.3842C80.0529 15.9355 80.4792 15.3333 80.7635 14.5777C81.0535 13.8164 81.1986 12.9699 81.1989 12.038C81.1991 11.1176 81.0573 10.288 80.7734 9.54928C80.4952 8.80489 80.072 8.21671 79.504 7.78474C78.9416 7.34708 78.2343 7.12814 77.382 7.12792C76.5638 7.1277 75.8763 7.3349 75.3193 7.74952C74.7624 8.15846 74.3418 8.73221 74.0575 9.47077C73.7732 10.2037 73.6309 11.0587 73.6307 12.036ZM86.2852 18.5849L86.2887 5.49395L88.2319 5.49447L88.2313 7.47174L88.3677 7.47178C88.6065 6.82411 89.0385 6.29866 89.6636 5.89542C90.2887 5.49218 90.9933 5.29066 91.7774 5.29087C91.9251 5.29091 92.1098 5.29381 92.3313 5.29955C92.5529 5.30529 92.7205 5.31386 92.8342 5.32525L92.8336 7.3707C92.7655 7.35364 92.6092 7.32803 92.3649 7.29387C92.1263 7.25404 91.8734 7.23408 91.6064 7.23401C90.97 7.23384 90.4018 7.36721 89.9017 7.63412C89.4074 7.89535 89.0152 8.25888 88.7253 8.72471C88.4411 9.18487 88.2989 9.7104 88.2988 10.3013L88.2965 18.5854L86.2852 18.5849ZM95.2148 18.5873L95.2184 5.49635L97.2297 5.49689L97.2262 18.5878L95.2148 18.5873ZM96.2417 3.3148C95.8496 3.3147 95.5116 3.18108 95.2276 2.91396C94.9492 2.64684 94.8101 2.32578 94.8102 1.95078C94.8103 1.57578 94.9496 1.2548 95.2281 0.987825C95.5123 0.720856 95.8504 0.587425 96.2424 0.58753C96.6345 0.587635 96.9697 0.721248 97.248 0.988368C97.532 1.25549 97.674 1.57655 97.6739 1.95155C97.6738 2.32655 97.5316 2.64754 97.2475 2.9145C96.969 3.18148 96.6337 3.31491 96.2417 3.3148ZM100.91 18.5888L100.914 5.49788L102.857 5.4984L102.856 7.47567L102.993 7.47571C103.232 6.82804 103.663 6.30259 104.289 5.89935C104.914 5.49611 105.618 5.29459 106.402 5.2948C106.55 5.29484 106.735 5.29774 106.956 5.30348C107.178 5.30922 107.346 5.31779 107.459 5.32918L107.459 7.37463C107.39 7.35757 107.234 7.33196 106.99 7.2978C106.751 7.25797 106.498 7.23801 106.231 7.23794C105.595 7.23777 105.027 7.37114 104.527 7.63805C104.032 7.89928 103.64 8.26281 103.35 8.72864C103.066 9.1888 102.924 9.71433 102.924 10.3052L102.922 18.5893L100.91 18.5888Z" fill="white"/>
</svg>
