<svg width="77" height="24" viewBox="0 0 77 24" fill="none" xmlns="http://www.w3.org/2000/svg">
<path d="M15.4204 9.83906C15.4199 11.68 15.0871 13.2708 14.4219 14.6115C13.7568 15.9522 12.8446 16.9861 11.6853 17.7131C10.526 18.44 9.20207 18.8033 7.71343 18.8029C6.2248 18.8025 4.90103 18.4385 3.74213 17.7109C2.58324 16.9833 1.67158 15.949 1.00717 14.6079C0.34276 13.2668 0.0108008 11.6758 0.0112955 9.83492C0.0117902 7.99401 0.344604 6.40319 1.00974 5.06246C1.67487 3.72173 2.58708 2.68788 3.74637 1.96092C4.90565 1.23396 6.22961 0.870679 7.71825 0.871079C9.20689 0.871479 10.5307 1.23547 11.6895 1.96306C12.8484 2.69064 13.7601 3.72498 14.4245 5.06606C15.0889 6.40715 15.4209 7.99815 15.4204 9.83906ZM13.3749 9.83851C13.3753 8.32715 13.1228 7.05151 12.6174 6.0116C12.1177 4.97169 11.439 4.18458 10.5811 3.65026C9.72901 3.11594 8.77454 2.84864 7.71772 2.84835C6.6609 2.84807 5.70344 3.11486 4.84534 3.64872C3.99293 4.18258 3.31374 4.96933 2.80778 6.00896C2.3075 7.0486 2.05716 8.3241 2.05675 9.83547C2.05634 11.3468 2.306 12.6225 2.80572 13.6624C3.31112 14.7023 3.98989 15.4894 4.84202 16.0237C5.69983 16.558 6.65714 16.8253 7.71396 16.8256C8.77078 16.8259 9.7254 16.5591 10.5778 16.0253C11.4359 15.4914 12.1151 14.7046 12.6154 13.665C13.1213 12.6254 13.3745 11.3499 13.3749 9.83851ZM18.698 23.4763L18.7028 5.4763L20.646 5.47683L20.6454 7.55637L20.8841 7.55644C21.0319 7.3292 21.2365 7.03948 21.4979 6.68728C21.7651 6.3294 22.1458 6.01132 22.6402 5.73304C23.1403 5.44909 23.8165 5.30722 24.6688 5.30745C25.771 5.30775 26.7426 5.58358 27.5833 6.13494C28.4241 6.6863 29.0801 7.46773 29.5514 8.47922C30.0228 9.49071 30.2582 10.684 30.2579 12.059C30.2575 13.4453 30.0214 14.647 29.5495 15.6639C29.0776 16.6751 28.424 17.459 27.5886 18.0156C26.7533 18.5665 25.7901 18.8418 24.6992 18.8416C23.8583 18.8413 23.185 18.7019 22.6794 18.4234C22.1738 18.1392 21.7847 17.818 21.5121 17.46C21.2395 17.0963 21.0293 16.7951 20.8816 16.5564L20.7112 16.5564L20.7093 23.4768L18.698 23.4763ZM20.6783 12.0223C20.6781 13.0109 20.8227 13.8831 21.1123 14.6389C21.4018 15.389 21.825 15.9771 22.3817 16.4034C22.9384 16.824 23.6202 17.0344 24.427 17.0347C25.2679 17.0349 25.9696 16.8135 26.5323 16.3705C27.1006 15.9217 27.5269 15.3196 27.8112 14.564C28.1011 13.8027 28.2463 12.9561 28.2465 12.0243C28.2468 11.1039 28.1049 10.2743 27.821 9.53557C27.5428 8.79118 27.1197 8.203 26.5516 7.77103C25.9892 7.33338 25.2819 7.11444 24.4296 7.11421C23.6115 7.11399 22.9239 7.32119 22.367 7.73581C21.81 8.14475 21.3894 8.7185 21.1051 9.45706C20.8209 10.1899 20.6786 11.045 20.6783 12.0223ZM38.8129 18.8453C37.5515 18.845 36.4635 18.5663 35.5489 18.0092C34.6399 17.4465 33.9384 16.6622 33.4444 15.6564C32.956 14.6449 32.712 13.4687 32.7124 12.1278C32.7127 10.7869 32.9574 9.60513 33.4463 8.58254C33.9409 7.55426 34.6286 6.75331 35.5094 6.17968C36.396 5.60038 37.4301 5.31088 38.6119 5.3112C39.2938 5.31138 39.967 5.4252 40.6317 5.65265C41.2965 5.8801 41.9015 6.24958 42.4468 6.76109C42.9921 7.26692 43.4266 7.93749 43.7502 8.77281C44.0739 9.60812 44.2355 10.6366 44.2352 11.8582L44.235 12.7104L34.144 12.7077L34.1445 10.9691L42.19 10.9713C42.1902 10.2326 42.0426 9.57349 41.7473 8.99386C41.4577 8.41424 41.0431 7.95674 40.5034 7.62137C39.9694 7.286 39.3387 7.11821 38.6115 7.11802C37.8103 7.1178 37.1171 7.31648 36.5318 7.71405C35.9521 8.10594 35.5059 8.61718 35.1933 9.24778C34.8806 9.87838 34.7242 10.5545 34.724 11.2761L34.7237 12.4352C34.7234 13.4238 34.8936 14.2619 35.2344 14.9495C35.5808 15.6314 36.0607 16.1514 36.6743 16.5095C37.2878 16.862 38.0008 17.0383 38.8133 17.0385C39.3417 17.0387 39.819 16.9649 40.2452 16.8173C40.6771 16.664 41.0493 16.4369 41.3619 16.1358C41.6745 15.8291 41.916 15.4485 42.0866 14.994L44.0297 15.5399C43.8249 16.199 43.481 16.7784 42.9979 17.2783C42.5148 17.7725 41.9182 18.1587 41.2078 18.4369C40.4975 18.7094 39.6992 18.8456 38.8129 18.8453ZM47.293 18.5749L47.2966 5.48399L49.2397 5.48451L49.2392 7.46178L49.3756 7.46182C49.6144 6.81416 50.0463 6.2887 50.6714 5.88546C51.2966 5.48222 52.0012 5.28071 52.7852 5.28092C52.933 5.28096 53.1176 5.28385 53.3392 5.28959C53.5608 5.29533 53.7284 5.3039 53.8421 5.31529L53.8415 7.36075C53.7733 7.34368 53.6171 7.31807 53.3728 7.28392C53.1342 7.24408 52.8813 7.22413 52.6143 7.22405C51.9779 7.22388 51.4097 7.35725 50.9096 7.62416C50.4152 7.88539 50.0231 8.24893 49.7332 8.71476C49.449 9.17491 49.3068 9.70044 49.3066 10.2913L49.3044 18.5754L47.293 18.5749ZM60.0749 18.8851C59.2454 18.8849 58.4926 18.7285 57.8165 18.4158C57.1405 18.0974 56.6037 17.6399 56.2061 17.0432C55.8085 16.4408 55.6099 15.7135 55.6101 14.8612C55.6103 14.1112 55.7582 13.5033 56.0538 13.0375C56.3493 12.566 56.7443 12.1968 57.2387 11.9298C57.7331 11.6629 58.2786 11.4642 58.8752 11.3337C59.4775 11.1975 60.0827 11.0897 60.6907 11.0103C61.4861 10.9083 62.1311 10.8317 62.6254 10.7807C63.1254 10.724 63.4891 10.6304 63.7164 10.4998C63.9494 10.3691 64.0659 10.1419 64.066 9.81804L64.066 9.74986C64.0662 8.90895 63.8363 8.25548 63.3762 7.78945C62.9218 7.32341 62.2315 7.09027 61.3054 7.09003C60.3451 7.08977 59.5922 7.29979 59.0467 7.7201C58.5011 8.14041 58.1175 8.58917 57.8957 9.06638L55.9868 8.38405C56.328 7.58869 56.7827 6.96949 57.351 6.52646C57.9249 6.07775 58.55 5.76542 59.2262 5.58947C59.9081 5.40783 60.5786 5.3171 61.2377 5.31728C61.6581 5.31739 62.141 5.36866 62.6865 5.47108C63.2376 5.56782 63.7688 5.76966 64.2801 6.07662C64.797 6.38358 65.2259 6.84676 65.5666 7.46617C65.9074 8.08558 66.0776 8.91517 66.0773 9.95494L66.075 18.5799L64.0636 18.5794L64.0641 16.8067L63.9618 16.8066C63.8254 17.0907 63.598 17.3946 63.2798 17.7184C62.9615 18.0422 62.5381 18.3176 62.0097 18.5448C61.4812 18.7719 60.8363 18.8854 60.0749 18.8851ZM60.3822 17.0784C61.1777 17.0786 61.8482 16.9226 62.3937 16.6102C62.9449 16.2979 63.3598 15.8946 63.6384 15.4003C63.9226 14.9061 64.0648 14.3862 64.0649 13.8408L64.0654 11.9999C63.9801 12.1021 63.7926 12.1958 63.5028 12.281C63.2187 12.3604 62.8891 12.4314 62.5141 12.4938C62.1448 12.5505 61.784 12.6015 61.4317 12.6469C61.0851 12.6866 60.8038 12.7206 60.5879 12.7489C60.0652 12.817 59.5765 12.9276 59.1219 13.0809C58.673 13.2285 58.3093 13.4529 58.0308 13.7539C57.758 14.0493 57.6216 14.4527 57.6214 14.964C57.6212 15.6629 57.8796 16.1914 58.3966 16.5495C58.9192 16.9019 59.5811 17.0782 60.3822 17.0784ZM69.7462 18.5809L69.7497 5.49002L71.6929 5.49054L71.6923 7.46782L71.8287 7.46785C72.0675 6.82019 72.4995 6.29474 73.1246 5.8915C73.7497 5.48826 74.4543 5.28674 75.2384 5.28695C75.3861 5.28699 75.5708 5.28988 75.7923 5.29562C76.0139 5.30136 76.1815 5.30993 76.2952 5.32133L76.2946 7.36678C76.2265 7.34972 76.0702 7.32411 75.8259 7.28995C75.5873 7.25011 75.3344 7.23016 75.0674 7.23009C74.431 7.22992 73.8628 7.36329 73.3627 7.6302C72.8684 7.89143 72.4762 8.25496 72.1863 8.72079C71.9021 9.18094 71.7599 9.70647 71.7598 10.2974L71.7575 18.5815L69.7462 18.5809Z" fill="white"/>
</svg>
