<svg width="91" height="18" viewBox="0 0 91 18" fill="none" xmlns="http://www.w3.org/2000/svg">
<path d="M0.671237 17.5664L0.675928 0.111851L6.57366 0.113436C7.93729 0.113802 9.05655 0.347058 9.93142 0.813202C10.8063 1.27366 11.4539 1.90736 11.8741 2.71429C12.2943 3.52122 12.5043 4.43889 12.504 5.4673C12.5038 6.49571 12.2933 7.40759 11.8726 8.20293C11.4519 8.99827 10.8069 9.6231 9.93745 10.0774C9.06802 10.526 7.95716 10.7502 6.60489 10.7498L1.83216 10.7485L1.83267 8.83944L6.53722 8.8407C7.46904 8.84095 8.21907 8.70479 8.78733 8.43221C9.36127 8.15964 9.77614 7.77339 10.032 7.27346C10.2935 6.76784 10.4243 6.16561 10.4245 5.46674C10.4247 4.76788 10.2942 4.15705 10.0329 3.63425C9.77171 3.11145 9.35421 2.70793 8.78042 2.42369C8.20663 2.13376 7.44815 1.98867 6.50497 1.98842L2.78906 1.98742L2.78487 17.567L0.671237 17.5664ZM8.88925 9.72769L13.1826 17.5698L10.7281 17.5691L6.50289 9.72705L8.88925 9.72769ZM19.6023 17.8783C18.7727 17.8781 18.0199 17.7216 17.3439 17.4089C16.6678 17.0906 16.131 16.6331 15.7334 16.0364C15.3359 15.434 15.1372 14.7066 15.1374 13.8544C15.1376 13.1044 15.2855 12.4965 15.5811 12.0306C15.8767 11.5591 16.2717 11.1899 16.7661 10.923C17.2605 10.6561 17.806 10.4574 18.4026 10.3268C19.0049 10.1906 19.61 10.0828 20.218 10.0035C21.0135 9.90141 21.6584 9.82488 22.1527 9.77387C22.6528 9.71719 23.0164 9.62354 23.2437 9.49292C23.4767 9.3623 23.5932 9.13506 23.5933 8.81119L23.5934 8.74301C23.5936 7.9021 23.3636 7.24863 22.9035 6.7826C22.4491 6.31657 21.7588 6.08343 20.8327 6.08318C19.8725 6.08292 19.1196 6.29294 18.574 6.71325C18.0284 7.13356 17.6448 7.58232 17.4231 8.05953L15.5142 7.3772C15.8553 6.58184 16.31 5.96264 16.8783 5.51961C17.4523 5.07091 18.0774 4.75857 18.7536 4.58262C19.4354 4.40098 20.1059 4.31026 20.765 4.31043C21.1855 4.31055 21.6684 4.36181 22.2138 4.46423C22.7649 4.56097 23.2961 4.76282 23.8074 5.06977C24.3244 5.37673 24.7532 5.83991 25.094 6.45932C25.4347 7.07873 25.6049 7.90832 25.6047 8.9481L25.6023 17.5731L23.591 17.5726L23.5915 15.7998L23.4892 15.7998C23.3527 16.0839 23.1254 16.3878 22.8071 16.7115C22.4889 17.0353 22.0655 17.3108 21.537 17.5379C21.0085 17.765 20.3636 17.8785 19.6023 17.8783ZM19.9096 16.0716C20.705 16.0718 21.3755 15.9157 21.9211 15.6034C22.4723 15.291 22.8872 14.8877 23.1657 14.3935C23.4499 13.8992 23.5921 13.3794 23.5923 12.8339L23.5927 10.993C23.5075 11.0953 23.32 11.189 23.0302 11.2741C22.7461 11.3536 22.4165 11.4245 22.0415 11.4869C21.6721 11.5436 21.3113 11.5947 20.9591 11.64C20.6125 11.6797 20.3312 11.7137 20.1153 11.7421C19.5925 11.8101 19.1039 11.9208 18.6493 12.0741C18.2004 12.2217 17.8367 12.446 17.5582 12.7471C17.2854 13.0425 17.1489 13.4458 17.1488 13.9572C17.1486 14.6561 17.407 15.1845 17.9239 15.5426C18.4465 15.895 19.1084 16.0714 19.9096 16.0716ZM28.8985 17.574L28.8989 16.0399L36.3333 6.49643L36.3333 6.36007L29.1402 6.35814L29.1407 4.48314L38.9248 4.48577L38.9243 6.08804L31.6945 15.5634L31.6945 15.6997L39.1604 15.7017L39.1599 17.5767L28.8985 17.574ZM47.201 17.8516C46.0192 17.8513 44.9823 17.5698 44.0904 17.007C43.2042 16.4443 42.5112 15.6572 42.0115 14.6457C41.5175 13.6342 41.2706 12.4523 41.271 11.1C41.2714 9.7364 41.5188 8.54612 42.0134 7.52921C42.5137 6.5123 43.2071 5.72271 44.0936 5.16045C44.9858 4.59819 46.0228 4.31722 47.2046 4.31754C48.3864 4.31786 49.4205 4.59938 50.3067 5.16212C51.1986 5.72486 51.8915 6.51482 52.3856 7.532C52.8853 8.54918 53.135 9.73959 53.1346 11.1032C53.1343 12.4555 52.8839 13.6372 52.3837 14.6485C51.8891 15.6597 51.1957 16.4465 50.3035 17.0087C49.417 17.571 48.3828 17.8519 47.201 17.8516ZM47.2015 16.0448C48.0992 16.0451 48.8379 15.8151 49.4176 15.3551C49.9972 14.895 50.4264 14.29 50.705 13.5401C50.9836 12.7901 51.123 11.9777 51.1233 11.1027C51.1235 10.2277 50.9845 9.4123 50.7063 8.65655C50.4281 7.90079 49.9993 7.28988 49.4199 6.82381C48.8404 6.35775 48.1019 6.1246 47.2041 6.12435C46.3064 6.12411 45.5677 6.35687 44.988 6.82262C44.4084 7.28838 43.9792 7.89906 43.7006 8.65466C43.422 9.41027 43.2826 10.2256 43.2824 11.1006C43.2821 11.9756 43.4211 12.7881 43.6993 13.5382C43.9775 14.2883 44.4063 14.8935 44.9858 15.3539C45.5652 15.8143 46.3037 16.0446 47.2015 16.0448ZM58.2167 9.70686L58.2146 17.5819L56.2032 17.5813L56.2067 4.49041L58.1499 4.49093L58.1493 6.53639L58.3198 6.53643C58.6268 5.87174 59.0928 5.33778 59.718 4.93454C60.3431 4.52561 61.1499 4.32129 62.1386 4.32155C63.0249 4.32179 63.8005 4.50382 64.4651 4.86763C65.1298 5.22576 65.6467 5.77136 66.0158 6.50441C66.385 7.23178 66.5694 8.15229 66.5691 9.26592L66.5668 17.5841L64.5555 17.5836L64.5577 9.40175C64.5579 8.37334 64.2911 7.57213 63.7572 6.99812C63.2232 6.41843 62.4904 6.12846 61.5585 6.12821C60.9165 6.12804 60.3426 6.26709 59.8368 6.54536C59.3368 6.82364 58.9418 7.22978 58.6519 7.76379C58.3619 8.29781 58.2169 8.9455 58.2167 9.70686ZM74.0944 17.8929C73.2649 17.8927 72.5121 17.7363 71.836 17.4236C71.16 17.1052 70.6232 16.6477 70.2256 16.051C69.8281 15.4486 69.6294 14.7213 69.6296 13.869C69.6298 13.119 69.7777 12.5111 70.0733 12.0453C70.3689 11.5738 70.7639 11.2046 71.2582 10.9376C71.7526 10.6707 72.2981 10.472 72.8948 10.3415C73.4971 10.2053 74.1022 10.0975 74.7102 10.0181C75.5057 9.91605 76.1506 9.83952 76.6449 9.78852C77.1449 9.73183 77.5086 9.63818 77.7359 9.50756C77.9689 9.37694 78.0854 9.1497 78.0855 8.82584L78.0855 8.75765C78.0858 7.91674 77.8558 7.26327 77.3957 6.79724C76.9413 6.33121 76.251 6.09807 75.3249 6.09782C74.3647 6.09756 73.6118 6.30759 73.0662 6.7279C72.5206 7.1482 72.137 7.59696 71.9153 8.07418L70.0064 7.39185C70.3475 6.59648 70.8022 5.97729 71.3705 5.53426C71.9445 5.08555 72.5696 4.77322 73.2457 4.59726C73.9276 4.41563 74.5981 4.3249 75.2572 4.32508C75.6776 4.32519 76.1606 4.37646 76.706 4.47887C77.2571 4.57561 77.7883 4.77746 78.2996 5.08442C78.8166 5.39137 79.2454 5.85456 79.5862 6.47397C79.9269 7.09338 80.0971 7.92297 80.0968 8.96274L80.0945 17.5877L78.0832 17.5872L78.0836 15.8145L77.9814 15.8144C77.8449 16.0985 77.6176 16.4024 77.2993 16.7262C76.981 17.05 76.5577 17.3254 76.0292 17.5526C75.5007 17.7797 74.8558 17.8932 74.0944 17.8929ZM74.4017 16.0862C75.1972 16.0864 75.8677 15.9304 76.4132 15.618C76.9645 15.3056 77.3793 14.9024 77.6579 14.4081C77.9421 13.9139 78.0843 13.394 78.0844 12.8486L78.0849 11.0077C77.9997 11.1099 77.8122 11.2036 77.5224 11.2888C77.2382 11.3682 76.9087 11.4392 76.5337 11.5016C76.1643 11.5583 75.8035 11.6093 75.4512 11.6547C75.1046 11.6944 74.8234 11.7284 74.6075 11.7567C74.0847 11.8248 73.596 11.9354 73.1415 12.0887C72.6926 12.2363 72.3289 12.4607 72.0504 12.7617C71.7776 13.0571 71.6411 13.4605 71.641 13.9718C71.6408 14.6707 71.8991 15.1992 72.4161 15.5573C72.9387 15.9097 73.6006 16.086 74.4017 16.0862ZM83.7657 17.5887L83.7692 4.49782L85.7124 4.49834L85.7119 6.47561L85.8482 6.47565C86.087 5.82799 86.519 5.30253 87.1441 4.89929C87.7692 4.49605 88.4738 4.29454 89.2579 4.29475C89.4056 4.29479 89.5903 4.29768 89.8119 4.30342C90.0335 4.30916 90.2011 4.31773 90.3147 4.32912L90.3142 6.37458C90.246 6.35751 90.0897 6.3319 89.8454 6.29775C89.6068 6.25791 89.354 6.23796 89.0869 6.23788C88.4506 6.23771 87.8823 6.37108 87.3823 6.63799C86.8879 6.89922 86.4957 7.26276 86.2058 7.72859C85.9216 8.18874 85.7794 8.71427 85.7793 9.30518L85.7771 17.5893L83.7657 17.5887Z" fill="white"/>
</svg>
