<svg width="109" height="19" viewBox="0 0 109 19" fill="none" xmlns="http://www.w3.org/2000/svg">
<path d="M3.16524 1.10795L8.34311 15.8025L8.54766 15.8026L13.7334 1.11079L15.9493 1.11139L9.53555 18.5642L7.35374 18.5636L0.949335 1.10736L3.16524 1.10795ZM18.3907 18.5666L18.3942 5.47568L20.4055 5.47622L20.402 18.5671L18.3907 18.5666ZM19.4175 3.29414C19.0255 3.29404 18.6874 3.16042 18.4034 2.8933C18.1251 2.62618 17.9859 2.30512 17.986 1.93012C17.9861 1.55512 18.1254 1.23413 18.4039 0.967163C18.6881 0.700194 19.0262 0.566763 19.4182 0.566868C19.8103 0.566973 20.1455 0.700586 20.4238 0.967706C20.7078 1.23483 20.8498 1.55589 20.8497 1.93089C20.8496 2.30589 20.7074 2.62687 20.4233 2.89384C20.1448 3.16081 19.8095 3.29425 19.4175 3.29414ZM33.3614 8.41152L31.5545 8.9224C31.4409 8.62123 31.2734 8.32858 31.0519 8.04443C30.836 7.7546 30.5407 7.51588 30.1657 7.32828C29.7908 7.14068 29.3107 7.0468 28.7254 7.04664C27.9243 7.04643 27.2566 7.23091 26.7224 7.60008C26.1939 7.96357 25.9296 8.42657 25.9295 8.98907C25.9293 9.48907 26.111 9.88401 26.4746 10.1739C26.8382 10.4637 27.4063 10.7054 28.1789 10.8988L30.122 11.3766C31.2924 11.661 32.1644 12.0959 32.7381 12.6812C33.3118 13.2609 33.5986 14.0082 33.5983 14.923C33.5981 15.673 33.382 16.3433 32.9501 16.9341C32.5238 17.5249 31.927 17.9907 31.1599 18.3314C30.3928 18.6721 29.5007 18.8423 28.4836 18.842C27.1484 18.8417 26.0434 18.5516 25.1685 17.9718C24.2937 17.392 23.7399 16.5453 23.5073 15.4316L25.4165 14.9548C25.5981 15.6594 25.9417 16.1879 26.4473 16.5403C26.9586 16.8928 27.6262 17.0691 28.45 17.0693C29.3875 17.0695 30.1319 16.8709 30.6831 16.4733C31.2401 16.07 31.5186 15.5872 31.5187 15.0247C31.5189 14.5701 31.3599 14.1894 31.0418 13.8825C30.7237 13.5699 30.2351 13.3368 29.5761 13.1832L27.3944 12.6713C26.1956 12.3869 25.315 11.9463 24.7527 11.3496C24.196 10.7471 23.9178 9.99421 23.9181 9.0908C23.9183 8.35217 24.1258 7.69881 24.5408 7.13074C24.9614 6.56268 25.5325 6.11681 26.2542 5.79314C26.9815 5.46947 27.8055 5.30776 28.7259 5.30801C30.0214 5.30835 31.0383 5.59272 31.7768 6.1611C32.521 6.72948 33.0492 7.47962 33.3614 8.41152ZM44.8765 13.2214L44.8786 5.4828L46.8899 5.48334L46.8864 18.5742L44.875 18.5737L44.8756 16.3578L44.7393 16.3578C44.4323 17.0225 43.9548 17.5877 43.307 18.0534C42.6591 18.5135 41.8409 18.7433 40.8523 18.7431C40.0341 18.7429 39.3069 18.5637 38.6706 18.2056C38.0343 17.8418 37.5345 17.2962 37.171 16.5688C36.8076 15.8357 36.626 14.9124 36.6263 13.7988L36.6286 5.48058L38.6399 5.48112L38.6377 13.6629C38.6375 14.6175 38.9043 15.3789 39.4382 15.9472C39.9779 16.5156 40.6653 16.7999 41.5005 16.8001C42.0005 16.8002 42.5091 16.6725 43.0262 16.417C43.549 16.1614 43.9866 15.7695 44.339 15.2412C44.6971 14.7129 44.8763 14.0396 44.8765 13.2214ZM54.4225 18.8831C53.593 18.8829 52.8402 18.7264 52.1641 18.4137C51.4881 18.0954 50.9513 17.6378 50.5537 17.0411C50.1562 16.4388 49.9575 15.7114 49.9577 14.8592C49.9579 14.1092 50.1058 13.5013 50.4014 13.0354C50.697 12.5639 51.092 12.1947 51.5863 11.9278C52.0807 11.6609 52.6262 11.4622 53.2229 11.3316C53.8252 11.1954 54.4303 11.0876 55.0383 11.0083C55.8338 10.9062 56.4787 10.8297 56.973 10.7787C57.473 10.722 57.8367 10.6283 58.064 10.4977C58.297 10.3671 58.4135 10.1398 58.4136 9.81598L58.4136 9.7478C58.4139 8.90689 58.1839 8.25342 57.7238 7.78739C57.2694 7.32136 56.5791 7.08822 55.653 7.08797C54.6928 7.08771 53.9399 7.29774 53.3943 7.71804C52.8487 8.13835 52.4651 8.58711 52.2434 9.06433L50.3345 8.38199C50.6756 7.58663 51.1303 6.96744 51.6986 6.52441C52.2726 6.0757 52.8977 5.76336 53.5738 5.58741C54.2557 5.40578 54.9262 5.31505 55.5853 5.31522C56.0057 5.31534 56.4887 5.3666 57.0341 5.46902C57.5852 5.56576 58.1164 5.76761 58.6277 6.07456C59.1447 6.38152 59.5735 6.8447 59.9142 7.46411C60.255 8.08352 60.4252 8.91312 60.4249 9.95289L60.4226 18.5779L58.4113 18.5773L58.4117 16.8046L58.3095 16.8046C58.173 17.0886 57.9457 17.3926 57.6274 17.7163C57.3091 18.0401 56.8858 18.3156 56.3573 18.5427C55.8288 18.7698 55.1839 18.8833 54.4225 18.8831ZM54.7298 17.0764C55.5253 17.0766 56.1958 16.9205 56.7413 16.6081C57.2926 16.2958 57.7074 15.8925 57.986 15.3983C58.2702 14.904 58.4124 14.3842 58.4125 13.8387L58.413 11.9978C58.3278 12.1001 58.1402 12.1938 57.8505 12.2789C57.5663 12.3584 57.2368 12.4293 56.8618 12.4917C56.4924 12.5484 56.1316 12.5995 55.7793 12.6448C55.4327 12.6845 55.1515 12.7185 54.9356 12.7469C54.4128 12.8149 53.9241 12.9256 53.4696 13.0789C53.0207 13.2265 52.657 13.4508 52.3785 13.7519C52.1057 14.0472 51.9692 14.4506 51.969 14.962C51.9689 15.6608 52.2272 16.1893 52.7442 16.5474C53.2668 16.8998 53.9287 17.0761 54.7298 17.0764ZM66.1098 1.12487L66.1052 18.5794L64.0938 18.5789L64.0985 1.12433L66.1098 1.12487ZM69.7891 18.5804L69.7926 5.4895L71.804 5.49004L71.8005 18.5809L69.7891 18.5804ZM70.8159 3.30795C70.4239 3.30785 70.0859 3.17423 69.8018 2.90711C69.5235 2.63999 69.3844 2.31893 69.3845 1.94393C69.3846 1.56893 69.5239 1.24795 69.8024 0.980976C70.0865 0.714007 70.4246 0.580575 70.8167 0.580681C71.2087 0.580786 71.5439 0.714399 71.8222 0.981518C72.1063 1.24864 72.2482 1.5697 72.2481 1.9447C72.248 2.3197 72.1059 2.64069 71.8217 2.90765C71.5432 3.17463 71.208 3.30806 70.8159 3.30795ZM75.1094 18.5818L75.1098 17.0477L82.5442 7.50429L82.5442 7.36792L75.3511 7.36599L75.3516 5.49099L85.1357 5.49362L85.1352 7.09589L77.9054 16.5712L77.9054 16.7076L85.3713 16.7096L85.3708 18.5846L75.1094 18.5818ZM92.321 18.8933C91.4914 18.8931 90.7386 18.7366 90.0626 18.4239C89.3865 18.1056 88.8497 17.648 88.4522 17.0513C88.0546 16.4489 87.8559 15.7216 87.8561 14.8694C87.8564 14.1194 88.0042 13.5114 88.2998 13.0456C88.5954 12.5741 88.9904 12.2049 89.4848 11.938C89.9792 11.6711 90.5247 11.4723 91.1213 11.3418C91.7236 11.2056 92.3288 11.0978 92.9367 11.0184C93.7322 10.9164 94.3771 10.8399 94.8715 10.7888C95.3715 10.7322 95.7351 10.6385 95.9624 10.5079C96.1954 10.3773 96.312 10.15 96.312 9.82617L96.3121 9.75799C96.3123 8.91708 96.0824 8.26361 95.6223 7.79757C95.1678 7.33154 94.4776 7.0984 93.5514 7.09815C92.5912 7.0979 91.8383 7.30792 91.2927 7.72823C90.7472 8.14854 90.3635 8.5973 90.1418 9.07451L88.2329 8.39218C88.574 7.59682 89.0287 6.97762 89.597 6.53459C90.171 6.08588 90.7961 5.77355 91.4723 5.5976C92.1541 5.41596 92.8246 5.32523 93.4837 5.32541C93.9042 5.32552 94.3871 5.37679 94.9325 5.47921C95.4836 5.57595 96.0148 5.77779 96.5261 6.08475C97.0431 6.39171 97.4719 6.85489 97.8127 7.4743C98.1534 8.09371 98.3237 8.9233 98.3234 9.96307L98.3211 18.5881L96.3097 18.5875L96.3102 16.8148L96.2079 16.8148C96.0715 17.0988 95.8441 17.4027 95.5258 17.7265C95.2076 18.0503 94.7842 18.3258 94.2557 18.5529C93.7273 18.78 93.0823 18.8935 92.321 18.8933ZM92.6283 17.0865C93.4237 17.0868 94.0942 16.9307 94.6398 16.6183C95.191 16.306 95.6059 15.9027 95.8844 15.4084C96.1686 14.9142 96.3108 14.3944 96.311 13.8489L96.3115 12.008C96.2262 12.1102 96.0387 12.2039 95.7489 12.2891C95.4648 12.3686 95.1352 12.4395 94.7602 12.5019C94.3909 12.5586 94.0301 12.6096 93.6778 12.655C93.3312 12.6947 93.0499 12.7287 92.834 12.7571C92.3112 12.8251 91.8226 12.9358 91.368 13.089C90.9191 13.2367 90.5554 13.461 90.2769 13.762C90.0041 14.0574 89.8676 14.4608 89.8675 14.9722C89.8673 15.671 90.1257 16.1995 90.6426 16.5576C91.1653 16.91 91.8271 17.0863 92.6283 17.0865ZM101.992 18.5891L101.996 5.49815L103.939 5.49867L103.938 7.47595L104.075 7.47598C104.314 6.82832 104.746 6.30287 105.371 5.89962C105.996 5.49638 106.7 5.29487 107.484 5.29508C107.632 5.29512 107.817 5.29801 108.038 5.30375C108.26 5.30949 108.428 5.31806 108.541 5.32946L108.541 7.37491C108.473 7.35785 108.316 7.33223 108.072 7.29808C107.833 7.25824 107.581 7.23829 107.313 7.23822C106.677 7.23804 106.109 7.37141 105.609 7.63833C105.114 7.89956 104.722 8.26309 104.432 8.72892C104.148 9.18907 104.006 9.7146 104.006 10.3055L104.004 18.5896L101.992 18.5891Z" fill="white"/>
</svg>
