<svg width="587" height="370" viewBox="0 0 587 370" fill="none" xmlns="http://www.w3.org/2000/svg">
<g filter="url(#filter0_i_2_8)">
<path d="M393.39 313.332C220.622 412.49 59.9378 354.438 1.43998 313.452L3.61151 281.075L31.3653 265.146C84.1412 297.502 222.998 343.1 356.216 266.641C489.434 190.183 525.834 58.6041 527.381 2.37205L557.187 22.1614L584.941 6.23258C589.138 48.2302 575.259 94.0663 557.187 134C522.326 211.035 459.424 275.433 393.39 313.332Z" fill="black"/>
</g>
<path d="M0.941105 313.418L0.922243 313.7L1.15307 313.861C59.7695 354.931 220.664 413.043 393.639 313.766C459.757 275.819 522.734 211.344 557.643 134.206C575.727 94.2442 589.649 48.3112 585.438 6.18286L585.362 5.4146L584.692 5.79893L557.206 21.5739L527.658 1.95551L526.906 1.45652L526.882 2.35829C525.337 58.4609 488.999 189.856 355.967 266.208C222.961 342.544 84.308 297.018 31.6266 264.719L31.3737 264.564L31.1164 264.712L3.36262 280.641L3.13054 280.774L3.11264 281.041L0.941105 313.418Z" stroke="black"/>
<defs>
<filter id="filter0_i_2_8" x="0.40448" y="0.540976" width="586.291" height="372.488" filterUnits="userSpaceOnUse" color-interpolation-filters="sRGB">
<feFlood flood-opacity="0" result="BackgroundImageFix"/>
<feBlend mode="normal" in="SourceGraphic" in2="BackgroundImageFix" result="shape"/>
<feColorMatrix in="SourceAlpha" type="matrix" values="0 0 0 0 0 0 0 0 0 0 0 0 0 0 0 0 0 0 127 0" result="hardAlpha"/>
<feOffset dy="4"/>
<feGaussianBlur stdDeviation="2"/>
<feComposite in2="hardAlpha" operator="arithmetic" k2="-1" k3="1"/>
<feColorMatrix type="matrix" values="0 0 0 0 0 0 0 0 0 0 0 0 0 0 0 0 0 0 0.25 0"/>
<feBlend mode="normal" in2="shape" result="effect1_innerShadow_2_8"/>
</filter>
</defs>
</svg>
