<svg width="486" height="521" viewBox="0 0 486 521" fill="none" xmlns="http://www.w3.org/2000/svg">
<path d="M87.9995 339C93.1244 339 98.0393 341.107 101.663 344.858C105.287 348.609 107.323 353.696 107.323 359C107.323 364.304 105.287 369.391 101.663 373.142C98.0393 376.893 93.1244 379 87.9995 379C82.8747 379 77.9598 376.893 74.336 373.142C70.7122 369.391 68.6763 364.304 68.6763 359C68.6763 353.696 70.7122 348.609 74.336 344.858C77.9598 341.107 82.8747 339 87.9995 339ZM87.9995 349C85.4371 349 82.9797 350.054 81.1678 351.929C79.3559 353.804 78.3379 356.348 78.3379 359C78.3379 361.652 79.3559 364.196 81.1678 366.071C82.9797 367.946 85.4371 369 87.9995 369C90.562 369 93.0194 367.946 94.8313 366.071C96.6432 364.196 97.6611 361.652 97.6611 359C97.6611 356.348 96.6432 353.804 94.8313 351.929C93.0194 350.054 90.562 349 87.9995 349ZM78.3379 409C77.1302 409 76.1158 408.1 75.9225 406.9L74.1351 393.65C71.0917 392.4 68.4831 390.7 65.9711 388.7L53.9424 393.75C52.8796 394.15 51.5753 393.75 50.9956 392.65L41.334 375.35C41.0383 374.835 40.9341 374.226 41.0408 373.637C41.1475 373.048 41.4578 372.519 41.9137 372.15L52.1067 363.85L51.7685 359L52.1067 354L41.9137 345.85C41.4578 345.481 41.1475 344.952 41.0408 344.363C40.9341 343.774 41.0383 343.165 41.334 342.65L50.9956 325.35C51.5753 324.25 52.8796 323.8 53.9424 324.25L65.9711 329.25C68.4831 327.3 71.0917 325.6 74.1351 324.35L75.9225 311.1C76.1158 309.9 77.1302 309 78.3379 309H97.6611C98.8688 309 99.8833 309.9 100.077 311.1L101.864 324.35C104.907 325.6 107.516 327.3 110.028 329.25L122.057 324.25C123.119 323.8 124.424 324.25 125.003 325.35L134.665 342.65C135.293 343.75 135.003 345.1 134.085 345.85L123.892 354L124.231 359L123.892 364L134.085 372.15C135.003 372.9 135.293 374.25 134.665 375.35L125.003 392.65C124.424 393.75 123.119 394.2 122.057 393.75L110.028 388.75C107.516 390.7 104.907 392.4 101.864 393.65L100.077 406.9C99.8833 408.1 98.8688 409 97.6611 409H78.3379ZM84.3764 319L82.589 332.05C76.7921 333.3 71.6714 336.5 67.9517 340.95L56.3095 335.75L52.6864 342.25L62.8794 350C60.9471 355.833 60.9471 362.167 62.8794 368L52.6381 375.8L56.2612 382.3L68 377.1C71.7197 381.5 76.7921 384.7 82.5407 385.9L84.3281 399H91.6709L93.4583 385.95C99.207 384.7 104.279 381.5 107.999 377.1L119.738 382.3L123.361 375.8L113.12 368.05C115.052 362.2 115.052 355.85 113.12 350L123.313 342.25L119.69 335.75L108.047 340.95C104.251 336.402 99.1023 333.288 93.41 332.1L91.6226 319H84.3764Z" fill="#F8F8F8"/>
<path d="M314.308 475.276C314.748 483.324 311.278 491.06 305.07 495.786L308.834 503.522C309.958 505.859 310.105 508.611 309.127 511.051C308.198 513.492 306.292 515.413 303.946 516.244L300.085 517.542C298.477 518.117 296.741 518.152 295.114 517.64C293.487 517.129 292.048 516.098 290.994 514.686L280.632 501.705C276.282 500.926 272.176 498.953 268.706 495.993C266.262 496.772 263.818 497.187 261.374 497.187C257.073 497.187 252.772 495.785 249.155 493.085C246.564 493.916 243.925 494.28 241.237 494.228C237.375 494.28 233.563 493.449 229.995 491.891C226.56 490.263 223.626 487.643 221.526 484.328C219.426 481.014 218.245 477.14 218.118 473.147C217.727 469.408 218.313 465.618 219.828 462.191C218.411 458.296 218.264 454.039 219.486 450.092C221.295 445.16 224.716 441.058 228.968 438.462C231.803 429.686 239.77 423.819 248.519 424.442C256.34 416.653 268.315 415.823 277.015 422.521C279.068 421.95 281.218 421.638 283.369 421.638C290.016 421.482 296.321 424.598 300.476 430.154C310.447 432.906 317.583 442.356 317.974 453.364C318.218 459.127 316.752 464.787 313.77 469.616C314.112 471.485 314.308 473.354 314.308 475.276ZM289.869 467.954C292.655 468.318 294.855 470.55 294.855 473.51C294.855 474.887 294.34 476.208 293.423 477.182C292.507 478.155 291.263 478.703 289.967 478.703H286.888C285.324 483.376 282.587 487.478 278.97 490.593C280.192 491.06 281.463 491.32 282.733 491.684C307.807 491.32 304.875 475.068 304.875 474.808C304.745 471.242 303.287 467.876 300.821 465.451C298.355 463.026 295.084 461.742 291.727 461.879C290.43 461.879 289.187 461.332 288.271 460.358C287.354 459.385 286.839 458.064 286.839 456.687C286.839 455.31 287.354 453.989 288.271 453.015C289.187 452.041 290.43 451.494 291.727 451.494C297.739 451.65 303.506 454.039 308.003 458.245C308.247 456.739 308.394 455.181 308.394 453.623C308.101 447.185 305.363 441.577 294.366 440.487C288.256 425.117 272.86 433.633 272.86 438.41C272.713 439.604 273.887 442.148 274.082 442.304C275.378 442.304 276.622 442.851 277.538 443.825C278.455 444.798 278.97 446.119 278.97 447.496C278.97 450.352 276.77 452.689 274.082 452.689C271.492 452.585 269.048 451.546 267.093 449.781C264.747 451.391 262.058 452.377 259.272 452.689C256.486 452.948 254.189 450.871 254.042 448.016C253.952 447.337 253.994 446.647 254.164 445.986C254.334 445.325 254.63 444.709 255.033 444.174C255.436 443.639 255.937 443.197 256.506 442.876C257.076 442.554 257.701 442.359 258.344 442.304C259.126 442.2 262.938 441.577 262.938 438.306C262.938 434.879 264.16 431.608 266.262 429.011C261.765 427.713 256.926 429.427 252.038 435.71C243.045 434.204 239.379 435.502 236.691 445.627C232.048 448.067 229.604 449.781 228.529 454.973C233.807 453.831 239.233 454.298 244.267 456.271C246.711 457.258 248.079 460.166 247.151 462.97C246.222 465.67 243.387 467.02 240.846 466.033C237.278 464.372 233.27 464.268 229.604 465.722C228.04 467.124 228.04 470.031 228.04 472.316C228.04 476.158 229.848 479.741 232.927 481.818C235.518 483.22 238.402 483.947 241.285 483.895C240.552 482.545 239.917 481.143 239.379 479.689C238.994 478.355 239.112 476.914 239.706 475.67C240.301 474.426 241.326 473.475 242.567 473.018C243.808 472.561 245.167 472.632 246.36 473.218C247.552 473.804 248.484 474.858 248.959 476.158C250.914 482.078 255.9 486.128 261.765 486.803C268.461 486.439 274.424 482.233 277.357 475.743C278.481 468.577 283.906 467.954 289.869 467.954ZM299.645 506.741L296.614 499.991L293.144 500.822L298.032 507.313L299.645 506.741ZM276.917 462.035C276.959 460.709 276.522 459.415 275.695 458.421C274.868 457.426 273.713 456.805 272.469 456.687C268.999 456.479 265.626 457.725 263.036 460.166C260.25 463.177 258.784 467.331 258.93 471.537C258.93 472.914 259.445 474.235 260.362 475.209C261.278 476.182 262.522 476.729 263.818 476.729C266.604 476.729 268.706 474.393 268.706 471.537C268.706 470.135 269.048 468.733 269.83 467.591C270.416 467.072 271.149 466.812 271.931 466.812C274.62 466.968 276.917 464.839 276.917 462.035Z" fill="white"/>
<path d="M486 369.625H479V400.562C479 401.734 478.727 402.833 478.18 403.858C477.633 404.884 476.885 405.777 475.938 406.539C474.99 407.301 473.878 407.901 472.602 408.341C471.326 408.78 469.958 409 468.5 409C467.042 409 465.674 408.78 464.398 408.341C463.122 407.901 462.01 407.301 461.062 406.539C460.115 405.777 459.367 404.884 458.82 403.858C458.273 402.833 458 401.734 458 400.562V369.625H451V364H465V339.874L458 334.249V319H479V334.249L472 339.874V364H486V369.625ZM465 331.876L468.5 334.732L472 331.876V324.625H465V331.876ZM472 369.625H465V400.562C465 401.324 465.346 401.983 466.039 402.54C466.732 403.097 467.552 403.375 468.5 403.375C469.448 403.375 470.268 403.097 470.961 402.54C471.654 401.983 472 401.324 472 400.562V369.625ZM433.5 319C435.906 319 438.167 319.366 440.281 320.099C442.396 320.831 444.237 321.842 445.805 323.131C447.372 324.42 448.63 325.914 449.578 327.613C450.526 329.312 451 331.129 451 333.062C451 335.26 450.38 337.34 449.141 339.303C447.901 341.266 446.188 342.921 444 344.269V400.562C444 401.734 443.727 402.833 443.18 403.858C442.633 404.884 441.885 405.777 440.938 406.539C439.99 407.301 438.878 407.901 437.602 408.341C436.326 408.78 434.958 409 433.5 409C432.042 409 430.674 408.78 429.398 408.341C428.122 407.901 427.01 407.301 426.062 406.539C425.115 405.777 424.367 404.884 423.82 403.858C423.273 402.833 423 401.734 423 400.562V344.269C420.812 342.95 419.099 341.31 417.859 339.347C416.62 337.384 416 335.289 416 333.062C416 331.129 416.456 329.312 417.367 327.613C418.279 325.914 419.518 324.435 421.086 323.175C422.654 321.915 424.513 320.904 426.664 320.143C428.815 319.381 431.094 319 433.5 319ZM437 341.148C438.021 340.68 438.951 340.182 439.789 339.654C440.628 339.127 441.375 338.556 442.031 337.94C442.688 337.325 443.161 336.607 443.453 335.787C443.745 334.967 443.927 334.059 444 333.062C444 332.184 443.836 331.334 443.508 330.514C443.18 329.693 442.706 328.932 442.086 328.229C441.466 327.525 440.719 326.91 439.844 326.383C438.969 325.855 438.021 325.445 437 325.152V333.062L433.5 335.875L430 333.062V325.152C428.943 325.445 427.995 325.855 427.156 326.383C426.318 326.91 425.589 327.525 424.969 328.229C424.349 328.932 423.875 329.693 423.547 330.514C423.219 331.334 423.036 332.184 423 333.062C423 334.088 423.164 334.996 423.492 335.787C423.82 336.578 424.312 337.281 424.969 337.896C425.625 338.512 426.354 339.098 427.156 339.654C427.958 340.211 428.906 340.709 430 341.148V400.562C430 401.324 430.346 401.983 431.039 402.54C431.732 403.097 432.552 403.375 433.5 403.375C434.448 403.375 435.268 403.097 435.961 402.54C436.654 401.983 437 401.324 437 400.562V341.148Z" fill="#F8F8F8"/>
<path fill-rule="evenodd" clip-rule="evenodd" d="M290.802 1.27481C292.958 0.0773609 295.504 -0.29395 297.932 0.23501C300.361 0.763969 302.492 2.15428 303.901 4.12836L304.312 4.75614L316.674 25.3493C317.92 27.4229 318.306 29.8718 317.756 32.2072C317.206 34.5425 315.76 36.5925 313.707 37.9477L313.055 38.3424L287.36 52.6102C284.962 53.9419 282.217 54.1987 279.745 53.5328L278.934 53.276L292.325 83.3334C292.813 84.4473 292.842 85.6982 292.405 86.8317C291.969 87.9653 291.1 88.8965 289.975 89.4361C288.851 89.9757 287.555 90.0832 286.351 89.7367C285.146 89.3903 284.125 88.6159 283.493 87.571L283.236 87.0763L272.945 63.9864L262.659 87.0763C262.17 88.203 261.249 89.1056 260.088 89.5972C258.926 90.0889 257.612 90.132 256.418 89.7177C255.223 89.3033 254.241 88.4632 253.673 87.3713C253.105 86.2793 252.996 85.0192 253.367 83.8518L253.565 83.3287L263.896 60.1483L254.91 65.1421C253.393 65.9848 251.669 66.4245 249.917 66.4161C248.164 66.4078 246.445 65.9516 244.936 65.0945L244.417 65.4464L243.873 65.7746L235.308 70.5305C233.152 71.728 230.606 72.0993 228.177 71.5703C225.749 71.0413 223.618 69.651 222.208 67.677L221.798 67.0492L219.326 62.9305C218.08 60.8569 217.694 58.408 218.244 56.0727C218.794 53.7373 220.24 51.6874 222.293 50.3321L222.945 49.9374L231.51 45.1815C231.88 44.9755 232.263 44.7928 232.657 44.6345C232.642 43.0867 233.019 41.5585 233.757 40.1827C234.495 38.8069 235.57 37.6251 236.89 36.7397L237.603 36.3069L259.015 24.4171C259.385 24.2112 259.768 24.0285 260.162 23.8702C260.146 22.3223 260.524 20.7942 261.261 19.4184C261.999 18.0426 263.075 16.8607 264.395 15.9754L265.107 15.5426L290.802 1.27481ZM236.455 53.4187L227.89 58.1746L230.363 62.2933L238.928 57.5373L236.455 53.4187ZM263.96 32.6544L242.548 44.5442L249.965 56.9L271.377 45.0102L263.96 32.6544ZM295.747 9.51206L270.052 23.7798L282.415 44.373L308.11 30.1052L295.747 9.51206Z" fill="#F8F8F8"/>
<path d="M433.518 175.714H468.483V182.143H433.518V175.714ZM440.511 188.571H461.49V195H440.511V188.571ZM451 105C441.727 105 432.833 108.386 426.276 114.414C419.719 120.442 416.035 128.618 416.035 137.143C415.798 141.814 416.772 146.471 418.875 150.729C420.978 154.987 424.151 158.725 428.133 161.636C431.629 164.625 433.518 166.329 433.518 169.286H440.511C440.511 163.371 436.63 160.061 432.853 156.879C429.585 154.578 426.981 151.576 425.268 148.135C423.555 144.695 422.786 140.92 423.028 137.143C423.028 130.323 425.975 123.782 431.221 118.96C436.467 114.138 443.582 111.429 451 111.429C458.419 111.429 465.534 114.138 470.78 118.96C476.026 123.782 478.973 130.323 478.973 137.143C479.211 140.923 478.437 144.699 476.717 148.14C474.998 151.581 472.387 154.581 469.113 156.879C465.371 160.093 461.49 163.307 461.49 169.286H468.483C468.483 166.329 470.336 164.625 473.868 161.604C477.847 158.698 481.018 154.965 483.122 150.713C485.225 146.46 486.2 141.809 485.966 137.143C485.966 132.922 485.062 128.742 483.304 124.842C481.547 120.943 478.972 117.399 475.725 114.414C472.478 111.43 468.623 109.062 464.381 107.447C460.139 105.831 455.592 105 451 105Z" fill="#F8F8F8"/>
<path d="M314.75 294C314.75 294 321 294 321 287.333C321 280.667 314.75 260.667 289.75 260.667C264.75 260.667 258.5 280.667 258.5 287.333C258.5 294 264.75 294 264.75 294H314.75ZM264.888 287.333C264.841 287.327 264.795 287.318 264.75 287.307C264.756 285.547 265.794 280.44 269.5 275.84C272.95 271.527 279.013 267.333 289.75 267.333C300.481 267.333 306.544 271.533 310 275.84C313.706 280.44 314.738 285.553 314.75 287.307L314.7 287.32C314.671 287.325 314.642 287.33 314.612 287.333H264.888ZM289.75 247.333C293.065 247.333 296.245 245.929 298.589 243.428C300.933 240.928 302.25 237.536 302.25 234C302.25 230.464 300.933 227.072 298.589 224.572C296.245 222.071 293.065 220.667 289.75 220.667C286.435 220.667 283.255 222.071 280.911 224.572C278.567 227.072 277.25 230.464 277.25 234C277.25 237.536 278.567 240.928 280.911 243.428C283.255 245.929 286.435 247.333 289.75 247.333ZM308.5 234C308.5 236.626 308.015 239.227 307.073 241.654C306.13 244.08 304.749 246.285 303.008 248.142C301.267 249.999 299.2 251.472 296.925 252.478C294.65 253.483 292.212 254 289.75 254C287.288 254 284.85 253.483 282.575 252.478C280.3 251.472 278.233 249.999 276.492 248.142C274.751 246.285 273.37 244.08 272.427 241.654C271.485 239.227 271 236.626 271 234C271 228.696 272.975 223.609 276.492 219.858C280.008 216.107 284.777 214 289.75 214C294.723 214 299.492 216.107 303.008 219.858C306.525 223.609 308.5 228.696 308.5 234ZM264.35 262.533C261.85 261.694 259.273 261.142 256.662 260.887C255.196 260.738 253.723 260.664 252.25 260.667C227.25 260.667 221 280.667 221 287.333C221 291.78 223.081 294 227.25 294H253.6C252.673 291.919 252.211 289.637 252.25 287.333C252.25 280.6 254.606 273.72 259.062 267.973C260.581 266.013 262.35 264.18 264.35 262.533ZM251.75 267.333C248.051 273.262 246.053 280.212 246 287.333H227.25C227.25 285.6 228.275 280.467 232 275.84C235.406 271.6 241.325 267.467 251.75 267.34V267.333ZM230.375 237.333C230.375 232.029 232.35 226.942 235.867 223.191C239.383 219.44 244.152 217.333 249.125 217.333C254.098 217.333 258.867 219.44 262.383 223.191C265.9 226.942 267.875 232.029 267.875 237.333C267.875 242.638 265.9 247.725 262.383 251.475C258.867 255.226 254.098 257.333 249.125 257.333C244.152 257.333 239.383 255.226 235.867 251.475C232.35 247.725 230.375 242.638 230.375 237.333ZM249.125 224C245.81 224 242.63 225.405 240.286 227.905C237.942 230.406 236.625 233.797 236.625 237.333C236.625 240.87 237.942 244.261 240.286 246.761C242.63 249.262 245.81 250.667 249.125 250.667C252.44 250.667 255.62 249.262 257.964 246.761C260.308 244.261 261.625 240.87 261.625 237.333C261.625 233.797 260.308 230.406 257.964 227.905C255.62 225.405 252.44 224 249.125 224Z" fill="#F8F8F8"/>
<path d="M86.9832 113.295L37.6909 141.249L56.1177 150.463L56.8086 177.121L89.056 193.269L120.424 175.472L119.733 148.814L128.695 143.736L129.491 174.437L138.579 174.201L137.657 138.658L86.9832 113.295ZM118.664 139.15L88.1025 156.481L56.6845 140.756L87.2458 123.425L118.664 139.15ZM111.2 170.465L88.7934 183.139L65.7606 171.643L65.331 155.07L88.365 166.611L110.77 153.893L111.2 170.465Z" fill="#F8F8F8"/>
</svg>
